<?xml version="1.0" encoding="UTF-8"?>
<svg version="1.1" viewBox="0 0 1536 2048" width="1280" height="1280" xmlns="http://www.w3.org/2000/svg">
<path transform="translate(911)" d="m0 0h546l18 3 13 5 14 9 10 9 8 9 9 15 5 15 2 13v1892l-3 17-6 15-7 11-11 12-8 7-14 8-12 5-16 3h-1382l-16-3-15-6-11-7-12-11-7-8-6-10-4-8-4-12-2-17v-859l2-17 5-15 7-13 8-10 9-9 14-9 10-5 15-4 6-1h340v-433l3-17 5-13 6-11 8-10 9-9 14-9 8-4 17-5 8-1h338v-431l2-15 5-15 7-13 8-10 9-9 14-9 8-4 12-4z" fill="#F1CE4B"/>
<path transform="translate(911)" d="m0 0h546l18 3 13 5 14 9 10 9 8 9 9 15 5 15 2 13v1892l-3 17-6 15-7 11-11 12-8 7-14 8-12 5-16 3h-339l-1-1457-3-17-5-13-6-11-8-10-8-8-14-9-16-7-19-3-207-1v-442l5-17 8-15 8-10 9-9 14-9 8-4 12-4z" fill="#D5950E"/>
</svg>
