<?xml version="1.0" encoding="UTF-8"?>
<svg version="1.1" viewBox="0 0 1392 1392" width="1280" height="1280" xmlns="http://www.w3.org/2000/svg">
<path transform="translate(0)" d="m0 0h1392v1392h-1392z" fill="#F8F8F8"/>
<path transform="translate(371,236)" d="m0 0h65l35 4 23 7 13 1 11 5 22 8 6 4-1 4h-2v2l-6 3-4 4-4 11-3 5-11 23-4 6h-2l-1 4-6 11-3 6v2h-2l-2 5-8 16-14 24-7 10-5 8-2 11-10-1-24-3h-41l-24 5h-2v2l-11 4-1 1-7 1-2 3-15 6-8 6h-2v2l-8 6-4 5-8 7-7 8-5 4-10 13-12 25-4 9-1 15 1 1v7l-2 3v33l1 15 5 16 6 15 9 16 10 14 11 13 12 11 11 7 10 6 20 10 10 2 3 2 13 3h17l4 3h32l15-3 14-2 9-3 14-4 17-9 12-8 10-8 10-9 8-8 11-15h2l1-4 4-6 4-7 7-12 2-5 10-19 12-25 8-17 14-28 7-15 2-5h2l1-7 4-6 7-15 4-11 3-3 2-6h2l2-9 3-6h2l2-9 4-4 3-8 2-4 2-1 6-11 5-8 6-8 5-9 9-9 9-11 8-8 7-8 4-5 6-5 6-7 8-7 14-12 17-12 13-8 27-14 21-9 31-11 16-5 13-3 24-5 31-3h64l30 4 27 6 29 9 20 8 16 7 16 8 14 8 12 8 17 12 14 12 8 7 24 24 11 14 8 10 14 21 12 21 9 21 5 12 7 18 2 9 3 9 3 10 3 16 5 26 2 13v36l-1 16-4 20-2 12-3 12-5 17-6 18-6 14-4 9-8 17-6 11-8 13-10 15h-2l-2 5-11 12-7 8-14 15-15 14-10 9-14 10-6 4-2 3-11 6-3 3-10 4-8 5-10 5-14 5h-2v2l-8 4-13 4-9 3-5 2-17 3-12 3-14 1v2l-20 2-7 2-24 1h-33l-24-1-14-3-22-3-14-1-5-2v-2l-9-1-20-6-6-4-9-3-8-2-4-2v-2l-11-3-2-1v-2l-7-1-12-7v-2l-5-1-9-7-5-2-1-3-6-1-12-8-3-4v-2l-4-1v-2l-4-1v-2l-16-8-6-7v-8l1-3h2l1-5 2-5h2l1-6 8-12 2-6 4-7 3-8 1-2h4l-2-9 7-4h4l-1-10 3-5h5l1-12 4-1 4-16 4-1v-2l-2-1 2-4 3-4 3-7 2-2 3-9 3-5 4-8 3-8 3-3 5 1 30 30 7 8 13 12 7 8 11 9 1 2 5 2 9 6 9 4 12 3 7 2h5l2-2 7 1 4 3h22l6-1 2 1h21l5-4 18 1 21-6 10-4 16-8 12-7 13-10 14-14 11-15 8-14 6-12 9-27 3-16 1-21-2-15-1-1v-13h-2l-5-15-5-12-6-10-5-9-4-5v-2l-4-2-6-7-4-6-7-4v-2l-4-1-5-5-7-5v-2l-6-2-6-4-7-3-8-4-7-2v-2l-7-1-40-6h-18l-9 2h-9l-25 3-10 4-17 6-17 10-14 11-4 2v2l-7 6-5 5-10 11-2 3h-2l-2 5-10 15-6 10-6 11-8 15-4 6-9 19-7 12-9 19-6 11-4 9h-2l-1 5-7 16-10 19-3 6-1-2h-2l-2 5-2 7-3 2-4 11-3 3-5 13-4 2-3 9-3 6-8 15-7 13-5 10-3 5h-2l-1 4h-2l-2 5-7 9-14 15-7 8-7 7-8 7-11 9-2 3-8 4-12 8-10 7-8 5-6 3-16 9-25 10-7 3-17 5h-5v2l-14 3-6 2-30 5-13 3h-55l-10-1-22-1-2-1-22-3-23-4-5-2-26-6-17-6v-2l-10-3-8-3v-2l-6-2-12-6-9-5-15-9-15-11-12-9-12-11-8-7-18-18-18-22v-2h-2l-8-12-6-8-9-15-8-16-6-13-8-21-6-20-4-10-4-22v-20h-2l-2-13v-23l1-21 3-14 3-32 5-16h2l1-8 2-4 1-10 3-7h2l1-10 5-10 4-10 5-9 4-8 8-13 9-14 7-10 13-16 10-12h2l2-5 9-8 5-5 12-11 13-10 15-11 14-9 22-12 20-9 16-6 13-5 16-4 9-3 18-4 18-3z" fill="#3A7090"/>
<path transform="translate(130,1039)" d="m0 0h33l15 3 6 4v2h2v5l-5 3-3 3-4 9-3 3-7 17-1 1h-24l-13 5-10 8-7 9-3 7v20l5 12 7 9 8 6 7 3 9 1h15l10-2 10-5 8-9 9-14 14-29 8-16 9-16 12-14 10-8 15-9 9-3 8-3 8-2h37l15 5 12 5 10 6 9 7 9 9 10 15 5 12 3 8 3 14v20l-4 18-6 14-8 12-11 12-13 10-17 8-14 4-9 2h-25l-15-3-13-4-9-5-12-7-10-8 10-20 8-17 5-10 4 2 14 15 10 5 4 1h21l9-1 16-8 7-9 6-12v-20l-6-12-11-11-9-5-9-2h-17l-10 3-10 6-9 10-15 26-17 33-9 16-7 9-10 9-14 9-9 4-10 3-15 3h-27l-1-1-12-2-10-3v-2l-6-1-14-8-16-15-10-14-7-16-4-16v-23l4-18 5-11 5-10 11-14 7-6 11-8 15-8 9-3z" fill="#3B7090"/>
<path transform="translate(1214,1043)" d="m0 0h18l12 2 13 5 16 11 3 1v-14h55v161h-54l-1-1-1-13h-4l-6 7-12 7-10 4-13 3h-9l-20-4-12-5-11-7-10-9-7-8-7-11-4-9-5-16-1-7v-21l2-15 4-11 7-13 8-10 13-13 14-8 13-5z" fill="#3B7090"/>
<path transform="translate(926,1043)" d="m0 0h24l16 2 12 4 14 7 10 8 8 8 9 15 5 12 2 4 2 16v20l-42-1-77 1-1 1v11l6 12 11 9 8 2h18l9-2 7-6 4-4 55 1-2 5-7 14-8 10-11 8-16 8-17 6-7 1h-32l-19-5-12-5-14-8-11-10-10-15-5-12-4-14v-34l3-12 5-12 7-12 11-12 12-9 8-4 10-4 12-3z" fill="#3C7191"/>
<path transform="translate(409,1048)" d="m0 0h57l1 1 1 102 3 7 3 5 6 4 6 2h13l12-2 8-5 4-9 2-7 1-97 5-1 51 1v107l-5 20-7 12-7 8-10 7-8 4-20 6-12 2-11 1h-14l-24-3-10-3-12-5-11-8-10-10-5-8-3-9-2-7-3-16z" fill="#3C7191"/>
<path transform="translate(771,1043)" d="m0 0h24l17 2 20 5 4 3-1 5-10 18-4 7-1 5-6-1-14-4-17-1-8 2-7 6 1 6 8 7 27 6 16 7 12 9 4 6 5 10 1 1v26l-4 9-4 8-8 10-11 8-5 3-17 6-8 2-15 1h-18l-17-3-16-6-17-8-1-4 6-9 11-23 2-4h4v2l4 1 14 7 7 2 3 2 5 1h17l10-7 2-3v-6l-7-6-11-4-14-3-11-3-14-7-8-7-4-7-3-8-1-5v-19l5-13 6-9 7-7 13-8 14-5 7-2z" fill="#3B7190"/>
<path transform="translate(543,263)" d="m0 0 5 1 15 8 24 14 14 11 1 4-12 22-9 16-9 14-12 21-8 16-10 17-6 8-8 16-4 13-3 1-17-8-20-7-5-3h-8l-19-6-8-1-23-1-4-2h-16l-31 5h-12l2-2 24-5h41l24 3 10 2 1-11 9-14 7-10 3-6 5-8 6-12 7-13h2l-1-3h2l1-5 7-12 1-3h2l2-5 18-36 2-5 7-6h3v-2h2v-4z" fill="#92ACBE"/>
<path transform="translate(699,1045)" d="m0 0h13l5 2v9l-9 14-5 11-1 13-21 1-12 6-10 9-6 12-1 87h-57v-6h-2v-2h2v-153h58l-1 19-2 5 6-3 12-13 14-7z" fill="#3D7291"/>
<path transform="translate(1145,1045)" d="m0 0h12l2 6v8l-5 5-9 14-9 16-14 2-13 7-7 8-4 7-1 5h-2l-1 7-1 79h-54v-161h57l-1 25 4-2 6-8 9-8 11-6z" fill="#3B7090"/>
<path transform="translate(512,251)" d="m0 0 26 9 8 5-1 4h-2v2l-6 3-4 4-4 11-3 5-11 23-4 6h-2l-1 4-6 11-3 6v2h-2l-2 5-8 16-14 24-7 10-5 8-2 11-10-1-24-3-31-1v-1h33l-2-6-1-7 6-11 5-5 5-11h2l1-5 6-12 2-6 12-24 5-8 15-25 4-10 5-13 3-9 9-6 8-1-1-3z" fill="#6D90A8"/>
<path transform="translate(487,246)" d="m0 0 20 2 5 3v4l-9 3-8 5-5 16-5 11-3 7-11 19-6 10-4 7-7 14-4 9-3 7-5 11h-2l-1 5-5 8-4 5-5 9 1 7 1 1v5h-29v-1l5-1-5-4-6-3-1-7 4-9 4-5 7-15 4-9 3-5h2l2-7 3-5 5-14 5-6 12-22 5-10 6-9 10-24 4-2v-2l9-3 10-2z" fill="#4E7C9B"/>
<path transform="translate(575,280)" d="m0 0 5 2 11 7 10 8 1 4-12 22-9 16-9 14-12 21-8 16-10 17-6 8-8 16-4 13-3 1-17-8-20-7-1-2 8 2v-3h2l2-5h2l2-5 14-22 11-18 7-12 5-7 5-9 4-10 9-16 5-8 2-5h2l1-6 5-10 2-5 4-4z" fill="#BECBD4"/>
<path transform="translate(1231,1092)" d="m0 0h17l10 4 9 6 7 9 3 10v17l-3 9-7 9-8 6-5 3-5 1h-20l-10-4-10-9-7-14v-21l5-10 7-8 13-7z" fill="#F8F8F8"/>
<path transform="translate(936,1078)" d="m0 0h12l10 3 9 7 7 9 3 4v4l-7 1h-62v-6l4-6 10-10z" fill="#F3F4F5"/>
<path transform="translate(182,1045)" d="m0 0 5 1 10 5 4 3-1 4-10 19-8 15-2 1h-7l-13-3 4-4 7-17 3-1 3-9 8-7 1-4h-2v-2z" fill="#92ACBE"/>
<path transform="translate(1038,1084)" d="m0 0h1v125h54v-79l2-7h2v-5h1l-1 21 2 8v40l-1 22-1 1h-59z" fill="#B5C4CF"/>
<path transform="translate(805,626)" d="m0 0 5 1 30 30 7 8 13 12 7 8 11 9-2 1-8-5-5-2v-2l-5-2-8-6-13-11-24-24-2-9-2-1v-4l-5-1-2 6-1-4z" fill="#6D90A8"/>
<path transform="translate(175,1042)" d="m0 0 4 1 5 3v2h2v5l-5 3-3 3-4 9-3 3-7 17-1 1-23-1v-1h11l1-10 3-3 2 1 2-7 5-11h2v-2l8-7 3-5z" fill="#6E91A8"/>
<path transform="translate(192,1049)" d="m0 0 5 2 4 3-1 4-10 19-8 15-2 1h-7l9-19 5-7 4-7 2-2v-7z" fill="#BECBD4"/>
<path transform="translate(169,1041)" d="m0 0 6 1 2 1-1 4-8 8h-2v2h-2l-2 7-3 5-2 6h-3l-3 12-4-2h2l2-9 3-11 2-1 1-10 3-5 6-1v-3h2z" fill="#4E7C9B"/>
<path transform="translate(805,626)" d="m0 0 5 1 30 30 7 8 13 12 7 8 11 9-2 1-8-5v-2l-4-2-8-7v-2l-4-2-9-8-4-4v-2l-2-2v-4l-4-2-5-4-4-1-4-4-3-5-8-9-5-2-2 6-1-4z" fill="#98B0C1"/>
<path transform="translate(973,1158)" d="m0 0h48l5 2v3h-49l-6-1z" fill="#9AB2C2"/>
<path transform="translate(525,1047)" d="m0 0 56 1v1h-54l-1 97h-1l-1-12v-86z" fill="#9FB5C4"/>
<path transform="translate(252,527)" d="m0 0h1v11l1 1v7l-2 3v47h-1l-4-26v-20l1-4 2-1 1-14z" fill="#95AEBF"/>
<path transform="translate(384,415)" d="m0 0h34l25 3v1h-22l-4-2h-16l-31 5h-12l2-2z" fill="#9FB4C3"/>
<path transform="translate(301,881)" d="m0 0 11 2 5 2 31 5 14 2 2 1 22 1 10 1v1h-22l-8 1-6-3-17-2-23-3-17-6z" fill="#A1B6C4"/>
<path transform="translate(970,415)" d="m0 0h16l22 3 19 4-4 1-34-5h-18l-9 2h-14l4-2 9-2z" fill="#97AFBF"/>
<path transform="translate(761,623)" d="m0 0h3l-3 9-9 17-6 12-2-4 3-4v-9l6-5 1-3 2-1 3-9z" fill="#85A2B6"/>
<path transform="translate(805,626)" d="m0 0 5 1 30 30-3 1v-3l-4-2-5-4-4-1-4-4-3-5-8-9-5-2-2 6-1-4z" fill="#A2B7C6"/>
<path transform="translate(1133,529)" d="m0 0h1l1 13 2 5 1 17-1 15-4 20h-1l1-13 1-5v-35l-3-4z" fill="#9EB4C3"/>
<path transform="translate(778,678)" d="m0 0 3 2h-4l-1 9-3 7-4 1v10l-1 2h-5l-2 8 1 5-1 2-2-1v-3l-1-1v-5l3-4 1-5 4-1 1-7 3-2v-6l5-1v-7z" fill="#A6BAC7"/>
<path transform="translate(64,536)" d="m0 0h1l-1 32v35l-2-3-1-10v-23l1-21z" fill="#8FA9BC"/>
<path transform="translate(908,890)" d="m0 0 13 1 14 3 24 1v1l-7 1h-18l-12-3-13-2z" fill="#A2B7C5"/>
<path transform="translate(839,1140)" d="m0 0 3 2v26l-3 8-1-4v-7l2-7v-10l-2-2z" fill="#7495AC"/>
<path transform="translate(302,452)" d="m0 0v3l-12 11-5 6v-3l2-6h2l2-5 5-4h4z" fill="#809EB3"/>
<path transform="translate(744,317)" d="m0 0 2 1-32 32v-3l9-10 6-5 6-7 8-7z" fill="#56829E"/>
<path transform="translate(401,415)" d="m0 0h17l25 3v1h-22l-4-2-16-1z" fill="#BECBD4"/>
<path transform="translate(1029,891)" d="m0 0h9v1l-8 1-1 1-7 1-5 2-25-1v-1l24-1z" fill="#A4B8C6"/>
<path transform="translate(761,623)" d="m0 0h3l-3 9-6 11-1-3 4-12z" fill="#A8BBC8"/>
<path transform="translate(804,628)" d="m0 0 5 1v4l3 1 1 9-5-5-2-6-4 1z" fill="#507D9C"/>
<path transform="translate(754,726)" d="m0 0h2l-1 3h-2v11l-7 2 2-5h4l-2-9z" fill="#9BB2C2"/>
<path transform="translate(767,610)" d="m0 0 3 1-1 4h-2l-1 5-2 3h-2v-6l2-3h2z" fill="#648BA5"/>
<path transform="translate(792,650)" d="m0 0 1 2-2 6 4 2-1 4-7-1 3-9z" fill="#628AA5"/>
<path transform="translate(893,704)" d="m0 0h8l5 1 2 4h-6l-9-4z" fill="#AABDCA"/>
<path transform="translate(973,1158)" d="m0 0 4 1 26 1v1h-31z" fill="#BECBD4"/>
<path transform="translate(832,869)" d="m0 0 6 1 9 3-3 1h-5-4z" fill="#9FB5C4"/>
<path transform="translate(955,417)" d="m0 0h16v1l-9 2h-14l4-2z" fill="#A6BAC7"/>
<path transform="translate(722,799)" d="m0 0 6 3v2l5 2v2h3v2l-5-2-6-4z" fill="#96AEBF"/>
<path transform="translate(762,709)" d="m0 0 1 3-2 2 1 8-1 2-2-1v-3l-1-1v-5z" fill="#A3B8C6"/>
<path transform="translate(751,821)" d="m0 0h2l3 4 8 4 1 3-5-2-8-6z" fill="#98B0C0"/>
<path transform="translate(749,650)" d="m0 0h2l-2 5-3 6-2-4z" fill="#A8BBC9"/>
<path transform="translate(1133,529)" d="m0 0h1l1 13v3l-4-3z" fill="#9BB2C1"/>
</svg>
