<?xml version="1.0" encoding="UTF-8"?>
<svg version="1.1" viewBox="0 0 2048 2048" width="1280" height="1280" xmlns="http://www.w3.org/2000/svg">
<path transform="translate(1728)" d="m0 0h20l14 7 42 28 44 29 43 29 44 29 13 9 69 46 16 11 9 10 6 12v368l-5 13-6 9-6 7-11 7-12 4-7 1h-77v26l-1 17-4 13-7 12-12 13-14 10-21 11-19 7-26 7-22 5 7 10 29 44 29 43 13 20 7 14 1 4v13l-4 11-5 8-8 8-8 4-8 2-11 1h-9l-1 69-4 9-6 7-9 5-10 3v79l11 2 8 5 7 8 3 7v573l-3 15-6 15-8 13-9 10-7 7-11 7-12 6-13 4-14 2-386 1-10 1-16 8-9 5-5 10-7 17v8l12 36 4 16v11l-3 12-6 11-9 10-34 34-5 6-8 7-10 10-10 6-11 4-4 1h-14l-15-4-38-13-5 1-26 11-5 8-18 36-8 11-9 8-16 7-4 1h-98l-16-7-9-7-7-8-12-23-12-24-4-3-23-9-6-2-36 12-18 5h-14l-13-4-11-7-64-64-7-11-4-13v-15l6-21 10-29v-7l-11-27-8-5-36-18-11-8-9-10-2-7-8 4-10 7-44 29-43 29-19 12-11 4-4 1h-9l-13-4-9-6-7-8-5-11-1-4v-20l-207-1-17-3-15-6-11-7-13-11-11-14-8-16-4-13-2-13v-948l-25-4-27-6-25-7-25-9-20-9-14-8-13-9-14-12-10-12-7-12-6-17v-398l8-20 9-13 5-6h2l1-3 11-9 11-8 18-10 19-9 25-9 21-6 28-6 36-6 29-3 39-2h36l34 2 38 4 30 5 30 7 26 8 24 9 20 10 18 12 11 9 11 11 9 14 5 11 2 8 1 11v377l-2 15-5 13-7 12-11 13-13 11-19 12-27 13-26 9-25 7-38 8-13 3-1 846 103-1v-9l2-15 6-12 6-7 14-8 10-2 12 1 12 5 117 78 4 1 7-11 8-8 16-9 34-17 3-4 6-15 4-9v-7l-14-42-2-8v-16l4-13 7-11 64-64 10-6 11-4 4-1h12l16 4 38 13 6-1 26-11 5-8 17-34 7-11 10-9 14-7 4-1 13-1h66l22 1 12 4 9 6 5 4 8 11 8 15 11 23 3 5v2l9 3 17 7 4 2 9-2 36-12 14-3h9l13 3 11 6 13 12 51 51 8 11 4 9 2 9v11l-4 16-12 36v8l11 26 3 3 23 11 3 1 237 1h55v-662h-16l-12-3-8-4-8-7-7-12-2-6v-16l5-13 36-54 29-43 8-13 7-10 1-2-13-2-25-6-17-5-21-9-14-8-13-10-9-9-9-14-4-12-1-6v-39h-79l-10-2-10-4-9-7-8-9-6-12-2-9v-365l5-12 6-8 12-9 44-29 43-29 44-29 43-29 44-29 43-29zm-714 1613-14 4-11 6-12 10-9 13-5 12-2 8v20l3 12 6 12 8 10 8 7 14 8 9 3 5 1h20l14-4 11-6 11-9 8-11 6-12 3-13v-16l-3-13-8-15-9-10-8-7-14-7-13-3z" fill="#010001"/>
<path transform="translate(689,683)" d="m0 0h669l17 1 21 4 20 8 14 8 12 9 13 12 11 14 10 17 6 15 5 19 2 24v294l-2 26-5 19-8 18-8 13-10 13-13 13-16 11-17 9-14 5-19 4-11 1h-476l-9-3-9-7-5-9-2-7v-4l-79 1-4 13-6 8-5 4-6 3-7 1h-78l-21-3-17-5-16-8-13-8-11-9-12-12-11-15-7-12-6-15-4-14-3-19-1-41v-164l1-111 2-16 6-21 9-19 9-13 8-10 10-10 18-13 17-9 18-6 17-3z" fill="#00BEFB"/>
<path transform="translate(992,1364)" d="m0 0h34l32 1 10 19 12 24 7 9 9 8 18 8 29 12 12 3h12l16-4 35-12 5 2 44 44v7l-12 35-3 12v14l5 16 10 24 8 18 5 6v2h2v2l4 2 14 8 24 12 11 6v68l-19 10-20 10-12 8-8 9-6 12-13 31-5 16v14l6 21 9 27v6l-46 46-9-2-36-12-10-2h-11l-14 4-41 17-11 8-7 8-14 27-10 19-55 1-13-1-5-8-16-32-6-9-5-6-11-7-23-10-23-9-11-2h-8l-19 5-32 11-5-1-10-10-6-5-6-7-6-5-6-7-6-5-6-7 2-9 12-36 2-9v-12l-4-13-9-22-9-21-4-6-6-7-11-7-38-19-2-2v-68l16-8 15-8 12-6 9-7 7-8 7-14 11-27 5-14 1-5v-11l-5-19-11-33 2-5 44-44 4-1 36 12 16 4h12l13-4 25-10 18-8 8-6h2l2-4 7-10 17-34 4-7zm22 249-14 4-11 6-12 10-9 13-5 12-2 8v20l3 12 6 12 8 10 8 7 14 8 9 3 5 1h20l14-4 11-6 11-9 8-11 6-12 3-13v-16l-3-13-8-15-9-10-8-7-14-7-13-3z" fill="#85CF5F"/>
<path transform="translate(689,683)" d="m0 0h669l17 1 21 4 20 8 14 8 12 9 13 12 11 14 10 17 6 15 5 19 2 24v294l-2 26-5 19-8 18-8 13-10 13-13 13-16 11-17 9-14 5-19 4-11 1h-476l-9-3-9-7-5-9-2-7 1-11 5-10 8-8 8-4 10-1h444l29-1 15-4 13-7 11-9 10-13 6-13 3-14v-312l-2-12-6-15-7-11-5-6-14-10-13-6-16-3h-684l-14 3-16 8-8 6-9 9-8 14-5 14-1 5-1 15-1 73v125l1 89 2 21 5 14 7 12 11 12 13 8 12 5 9 2 77 1 11 2 6 3 5 5 4 5 4 10 1 6-4 13-6 8-5 4-6 3-7 1h-78l-21-3-17-5-16-8-13-8-11-9-12-12-11-15-7-12-6-15-4-14-3-19-1-41v-164l1-111 2-16 6-21 9-19 9-13 8-10 10-10 18-13 17-9 18-6 17-3z" fill="#010001"/>
<path transform="translate(1736,65)" d="m0 0h5l11 8 44 29 43 29 44 29 43 29 36 24 25 17v328l-15 1h-48l-1-162-4-16-8-14-9-11-13-10-16-9-25-10-25-7-26-5-25-3-16-1h-36l-26 2-32 5-28 7-22 8-16 8-12 8-11 9-8 9-7 12-4 14-1 36v128l-1 1-11 1h-51l-1-1v-328l10-7 12-8 43-29 17-11 126-84 32-21z" fill="#FB6A31"/>
<path transform="translate(1737,760)" d="m0 0h3l10 16 7 10 48 72 1 4-10 3-10 6-7 7-5 8-2 7v99l3 8 9 8 16 7 1 7v71l-15 5-10 9-4 7-1 24v545l-4 10-9 10-8 4-4 1h-350v-64h220l58-1 11-4 8-6 3-1 2-4 5-9 2-9 1-196v-155l-1-363-3-10-5-9-7-7-10-5-9-3 2-5 10-16 29-43 17-26z" fill="#00539F"/>
<path transform="translate(247,743)" d="m0 0h63l1 1v647l1 221 3 10 6 9 10 7 10 4 4 1h156l11-4 10-7 7-10 2-4 1-8 4-1 26 17 38 25 27 18 9 7-3 3-39 26-43 29-16 10-2-1-4-12-6-9-9-8-11-4-8-1-225-1-9-4-8-7-4-5-3-12v-936z" fill="#00539F"/>
<path transform="translate(60,328)" d="m0 0 5 1 20 9 15 6 35 10 33 7 25 4 41 4 20 1h48l42-3 31-4 29-5 29-7 23-7 25-10 13-6h3l-1 47-6 8-9 8-14 8-17 8-16 6-10 7-6 9-2 8v8l4 11 7 8 10 5 4 1h9l18-6 28-12 1 3-1 44-4 7-9 8-13 8-19 9-22 8-30 8-27 5-31 4-26 2-27 1h-20l-27-1-43-4-35-6-32-8-23-8-16-7-17-10-11-10-3-5-1-4v-44l9 3 20 9 30 10 28 7 26 5 27 4 31 3 18 1h58l12-3 9-7 4-6 3-9v-10l-5-12-4-5-8-5-7-2-62-1-29-2-26-3-25-4-30-7-30-10-20-9-13-8-11-9-4-6-1-5z" fill="#7FACE2"/>
<path transform="translate(269,184)" d="m0 0h24l38 2 35 4 29 5 28 7 26 9 18 8 15 9 11 10 4 8-2 8-6 7-11 8-16 9-19 8-29 9-27 6-31 5-30 3-17 1h-61l-28-2-26-3-29-5-26-6-30-10-22-10-11-7-11-9-5-8 1-8 9-10 10-7 14-8 10-5 36-12 31-7 25-4 29-3 14-1z" fill="#AFC9EB"/>
<path transform="translate(1011,1553)" d="m0 0h26l17 3 18 6 19 10 13 10 10 9 9 11 9 14 7 15 5 15 3 16 1 20-2 16-6 21-7 16-9 14-8 10-11 11-15 11-17 9-15 5-19 4-10 1h-10l-21-3-14-4-13-5-16-9-13-10-12-12-12-17-8-16-6-18-3-17v-26l3-17 6-18 8-16 8-11 9-10 5-5 11-10 15-9 13-6 16-5zm3 60-14 4-11 6-12 10-9 13-5 12-2 8v20l3 12 6 12 8 10 8 7 14 8 9 3 5 1h20l14-4 11-6 11-9 8-11 6-12 3-13v-16l-3-13-8-15-9-10-8-7-14-7-13-3z" fill="#010001"/>
<path transform="translate(706,808)" d="m0 0h139l9 4 6 5 5 8 2 6v13l-4 10-5 6-10 6-4 1-101 1 1 63 38 1 10 4 7 7 5 10 1 3v11l-3 9-6 8-10 6-12 2h-31l1 63 94 1 12 2 8 6 6 8 3 8v12l-5 12-9 8-7 3-8 1h-125l-10-2-10-6-6-7-3-8v-263l5-10 5-5 8-6z" fill="#010001"/>
<path transform="translate(60,576)" d="m0 0 6 2 25 11 24 8 26 7 30 6 27 4 30 3 16 1h69l35-3 31-4 27-5 25-6 29-9 20-8 15-7 2 1-1 47-6 8-9 8-16 9-16 7-30 10-30 7-30 5-27 3-30 2h-47l-30-2-35-4-27-5-25-6-19-6-21-8-19-10-9-7-7-7-3-8z" fill="#7FACE2"/>
<path transform="translate(681,743)" d="m0 0h684l16 3 16 8 13 10 8 11 7 14 3 10 1 8v312l-3 14-8 16-9 11-11 9-16 8-12 3-31 1h-451l1-2 453-1 6-9 3-1 2-4 2-3h2l2-6 6-14 4-16 1-9v-46l-2-10 1-17v-229l-2-20-4-21-7-14-4-5-3-7-2-2-666-1z" fill="#05A6EC"/>
<path transform="translate(1203,808)" d="m0 0h15l10 5 8 9 4 11v223h97l10 2 8 6 6 8 3 8v12l-4 10-6 7-8 5-12 2h-123l-11-2-10-6-6-7-3-8v-263l4-9 5-6 10-6z" fill="#010001"/>
<path transform="translate(954,808)" d="m0 0h140l10 5 8 9 3 7 1 5v7l-3 10-6 8-5 4-10 4-37 1-1 1-1 224-4 9-7 8-10 5h-15l-12-6-7-8-3-7-1-182v-44h-14l-23-1-11-4-8-7-5-10-1-3v-10l4-11 8-9z" fill="#010001"/>
<path transform="translate(1861,473)" d="m0 0h2v54l-9 8-17 8-18 6-28 6-24 3-19 1h-16l-31-2-26-4-21-5-19-7-12-6-8-6-2-4v-27l1-24 37 11 26 5 24 3 13 1h45l31-3 25-4 28-7 16-6z" fill="#80ACE2"/>
<path transform="translate(1862,597)" d="m0 0h1v54l-5 5-11 7-15 6-16 5-24 5-25 3-18 1h-21l-28-2-26-4-17-4-21-7-15-8-7-6-1-2v-44l1-8 25 8 25 6 25 4 22 2h53l28-3 24-4 21-5 21-7z" fill="#80ACE2"/>
<path transform="translate(1719,371)" d="m0 0h38l33 3 24 5 20 6 21 10 8 7-5 6-14 8-19 7-23 6-27 4-29 2h-15l-30-2-26-4-21-5-17-6-14-7-9-8 1-3 14-9 14-6 23-7 28-5z" fill="#AEC9EB"/>
<path transform="translate(1676,186)" d="m0 0h125l11 4 9 8 4 8 2 8-1 9-4 10-8 8-8 4-13 2h-115l-11-3-9-7-6-9-2-6v-10l3-10 7-9 8-5z" fill="#010001"/>
<path transform="translate(620,798)" d="m0 0h1v60l1 11 1 50h1v14h-2v4h2v6h-1v22l1 5h-1l-2 94v62h-1l-2-21-1-89v-125l1-73 1-15z" fill="#05A9F0"/>
<path transform="translate(959,867)" d="m0 0h33l2 1 1 44 1 185-3-2-2-8v-217l-32-2z" fill="#06ACF2"/>
<path transform="translate(683,832)" d="m0 0h1v261h-1l-1-6-1-39v-136l1-66z" fill="#0385CE"/>
<path transform="translate(618,818)" d="m0 0h1l1 139v140l1 15v14h-1l-2-21-1-89v-125z" fill="#0054A0"/>
<path transform="translate(993,868)" d="m0 0h1l1 44 1 185-3-2z" fill="#00539F"/>
<path transform="translate(959,867)" d="m0 0h33l1 1v57h-1l-1-55-32-2z" fill="#0495DD"/>
</svg>
