<?xml version="1.0" encoding="UTF-8"?>
<svg version="1.1" viewBox="0 0 900 900" width="1280" height="1280" xmlns="http://www.w3.org/2000/svg">
<path transform="translate(0)" d="m0 0h900v900h-900z" fill="#135E38"/>
<path transform="translate(0)" d="m0 0h900v59l-4-4-7-11-7-6-11-5-434-1h-191l-9 1-13 7-5 4-6 10-3 12v150l-2 3-173 1-10 2-3 2 5-2 2-1 176-1 4-1 1-2 1-14 6 3-1 6 8 2v2l4-1h20l5-1h30l5-1h15l10 2h9l8-1h7l5 1 8-1h2 6l5 1h14l4 1 8-1 5 1h17l4-1 2 1 20 2h7l11 3v1h-7l3 5 8 7 1 49v148l-1 18v9l-1 6 1 4-1 1v12l1 7-2 4-1 5h-3l-2-7 1-6 1-3-8 3-2 2-3 8-2 2-3-2-2 5-3 3v2l-4 1-2 2 1 4-3 2-3 7h-2l1 6h-3v6l-2 3h-2l-1 6h-3l-2 6-3-1-2 5-3 3-4 2-2 5h-8l-2-1v2h-4l-4-1-1 2-2-1-1 2-1-3h-2l-1-2h-3-5l-1 2h-2v2l-5 2h-3l-2-7 1-3-4 1-1-3-3-1v-2h-2l-1-4h-3l-7-10-4-4-1-2h-2l-3-6-4-6-1-4h-2l-2-4v-3l-4-2v-3h-2l-6-11-6-9-3-2 8 14 14 22 11 18 13 21 11 18-1 2h-55l-4-4-16-30-9-17v-2h-2l3 12 2 2 4 10 6 10 5 13 1 3 3 1 1 4h2v2l6 2 8 2 16 2h6l2 1v2l3-1 5 3-2 4-4-1-1-1-3 7-5 1-3-2v2l-10 5-1-2-2 1-1-2-11 5h-3l-1 3-5 1-1 3 1 3h-4v-3l-1 2-3 1-2 4-10 2-3 4-4 1-2 2-4-1-2-4-4 6h-2v2l-5 1-1 2-4 2-5 6-5 1 2-1-1-3h-3l-2 1-4-2h-7l-4-1v4h-2l-1 3-5 2v-3l-3-1-1 4 2 1 5-1 2 4 6 1 2-2 1 3-1 2 7 2v2l3 1v2h-6l8 3-2 5-1 2-7 2-15-1-16 1-6 2 1 1 37 1 5 1 1 2 1 152 3 11 6 10 9 7 8 4 9 2h604l20-1 13-5 9-8 8-14h1v60h-900z" fill="#0F7A47"/>
<path transform="translate(246,31)" d="m0 0h191l434 1 14 7 8 9 7 11v392l-54-1h-278l-5-2v-201l-1-5h-25l-42-1-13-1v-2h-5l-5-3-1-6-4-1-3-3-9-3-11-3h-13l-9-2h-6l-2-1-7 1h-17l-4-1-5 1-8-1h-13l-5-1-5 1v-2l-6 2h-7l-4-1h-8l-4 1h-11l-10-2h-13l-5 1h-31l-7 1h-20v-2l-6-1-2-1v-6l-4-2-1 13-2 3-4 1-176 1-5 3-3-1 4-3 10-2 173-1 1-2v-150l3-12 7-11 10-7 8-4z" fill="#1EA166"/>
<path transform="translate(455,222)" d="m0 0h5l6 4 5 3 1 6 10 3v2h15l53 1h12l2 7v200l4 1h279l49 1 4 1v205l-3 1-6-1-12 1-2 1h-35l-14 1h-21l-9-1h-227l-7-2 1-47-1-11v-8l1-2-1-13 1-1v-5l1 4h2l-3-8-2-2 1-5v-3l-1-9v-14l1-2-2-1 2-4-1-2v-25l1-17v-19l1-4 4-2 1-5-6 1-2-4h-5l-1 2h-8l-7-1v2l-11-1h-12l-8-2-7-2-3-2-1-8-2-9-1-11-2-6 1-31 1-8-1-7v-15l1-10v-14l1-2-2-1 1-2-1-9 1-9h-2l-1-5 1-5-1-3v-3l-1-3-2-1v-5l2-4-4-2-2-5v-11l8-5h2v-5h-3l-3 1-2-1v-2l-4 1-7-3-7-4-7-9-5-3v-2z" fill="#0F7A47"/>
<path transform="translate(561,32)" d="m0 0h310l14 7 8 9 7 11v183l-16-1h-321v-40l1-158 1-10z" fill="#32C383"/>
<path transform="translate(0)" d="m0 0h900v59l-4-4-7-11-7-6-11-5-434-1h-191l-9 1-13 7-5 4-6 10-3 12v150l-2 3-173 1-10 2-10 6-5 4-7 12-2 4h-1z" fill="#FDFEFD"/>
<path transform="translate(0,653)" d="m0 0 3 3 6 9 9 8 13 6 5 1 172 1 1 1 1 152 3 11 6 10 9 7 8 4 9 2h604l20-1 13-5 9-8 8-14h1v60h-900z" fill="#FDFEFD"/>
<path transform="translate(128,325)" d="m0 0h57l3 4 11 23 21 41 13 26 1 1 11-23 9-16 8-14 7-14 10-18 6-9 1-1h53l-2 6-6 9-12 20-16 26-13 21-16 26-9 15 1 4 12 19 16 26 12 19 11 18 13 21 11 18-1 2h-55l-4-4-16-30-10-19-14-26-10-18-1-1-8 17-10 18-14 26-20 36-1 1h-57l1-5 13-20 12-19 10-15 15-23 12-19 14-21 1-5-17-28-11-19-17-28-8-14-13-22-6-10z" fill="#FDFEFD"/>
<path transform="translate(465,239)" d="m0 0 6 1v2l6 1 2 1v28l1 6-1 36-1 17v107l1 10 2 5 1 15v93l-1 5v21l1 3v10l-1 7v14l1 5-1 12v29l-1 23-2 17-1 2h-2l-2 5-5 3h-3v2l-6 3-7 1-1 2-5 1h-9l-5-2-3 1h-8l-5 1-8-2h-6l-5-1-11-2-20-2-2 2h-2v-2h-10l-10-2-4 1-7-1h-33l-5 1-4-1h-8l-6 2-2-2-13 1-1 1h-5l-1-1h-7l-9 3-3-1-9 3-2 5v6l-2 5h-2l-2 4-4 2-1 5h-1l-1-49v-20l2-1h166l49-1 10-2 12-6 2-4 5-8 2-7 1-4 1-30 1-75 1-102v-190l1-5-1-5h3z" fill="#0B4026"/>
<path transform="translate(466,449)" d="m0 0 4 1 4 20 2 7-1 5 2 1 1 37v54l1 12v3 15l-1 17-1 31v4h-2v12l-3 14-3 1-2 5-2 3h-2l-1 3-3 2-17 4-12 1-5 1h-95l-16-1-8 1-52-1h-29l-6 2-3 6-3 14-1 9h-1l-1-31v-20l2-1h166l49-1 10-2 12-6 2-4 5-8 2-7 1-4 1-30 1-75 1-15 1-72 1-6z" fill="#0A301E"/>
<path transform="translate(465,239)" d="m0 0 6 1v2l6 1 2 1v28l1 6-1 36-1 17v107l1 10 2 5 1 15v93l-1 5v20h-2l-1-2-1-18v-53l-1-30-1-3-1-9-2-5-2-12-1-4h-5l-1 78h-1v-277l1-5-1-5h3z" fill="#0A3F25"/>
<path transform="translate(113,226)" d="m0 0h7v1h14l7 1 20 1v2l7 1 1 2-18-2h-10l-4 1v2h6l-4 2-18 2-3 2-2 2h-12l-4-1v2l-9 1h-5l-3-1-2 1h-8v2l-6 2-4-2-5 3h-6v2h-2l-1 4h-4l-1 3-4 1-1 4 1 4-3 4-5-2-3-1-1 11-4 1-1-3-5 1-4-1v-2h-2l-1-2-4 1 1 5 2 1h-2l-2 5-4-1-2-3v-34l4-8 2 2 2-3h3l3-3 9-1v-3h-2l1-3 8-2 9 1 15-1 9 1 12 1 5 1 5-1 5 1 6-2 2-1h15z" fill="#178954"/>
<path transform="translate(211,203)" d="m0 0 6 3-1 6 8 2v2l4-1h20l5-1h30l5-1h15l10 2h9l8-1h7l5 1 8-1h2 6l5 1h14l4 1 8-1 5 1h17l4-1 2 1 10 1 4 1v2h-5l-2 1-7-1h-89l-6 1h-17l-5-1-7 1h-11l-7 1h-13l-19 4-4 1h-7l-1-2-6 2-5 1-4 1-2-3-1-5-4-2 1-2z" fill="#178954"/>
<path transform="translate(220,495)" d="m0 0h3v9l-3 4-5 9-3 3-1 6-9 17-4 9-3 6-3 2v3l-4 4-1 2h-3v2h-4l2-6 13-24 13-23z" fill="#15683F"/>
<path transform="translate(339,328)" d="m0 0 1 4-3 5-2 7-5 5-3 6h-2l-2 9-5 5-1 2h-2l-2 5-4 5-3 8h-2l-2 5-3 6h-3l-1 8-4 3h-2l1-6 12-19 17-28 13-21 5-8z" fill="#166A41"/>
<path transform="translate(28,220)" d="m0 0h177v1l-176 1-5 3-3-1 4-3z" fill="#1D9E64"/>
<path transform="translate(579,451)" d="m0 0h15 4v2l4 1 4-3 4 2v3l-5 1h-3l-3 1-3-1v-2l-8 3-11-1v-2l-2-1z" fill="#135E38"/>
<path transform="translate(461,560)" d="m0 0 2 2v66l-2 20h-1v-30z" fill="#0B4026"/>
<path transform="translate(308,376)" d="m0 0 2 4-4 9h-2l-2 5-3 6h-3l-1 8-4 3h-2l1-6 12-19z" fill="#187246"/>
<path transform="translate(455,222)" d="m0 0h5l6 4 5 3 1 6 10 3v2h13v1l-14 1-8-3-5-5-7-8-3-1v-2z" fill="#13814D"/>
<path transform="translate(28,220)" d="m0 0h79v1l-78 1-5 3-3-1 4-3z" fill="#1A9059"/>
<path transform="translate(226,403)" d="m0 0h3l2 6 3 1v3h3l-2 7-2 1-7-14z" fill="#1A794B"/>
<path transform="translate(130,552)" d="m0 0h2l-1 4-10 16h-2l1-8 5-7z" fill="#176B42"/>
<path transform="translate(7,662)" d="m0 0 6 2 5 5 5 4 4 4-5-1-9-6-6-6z" fill="#166A41"/>
<path transform="translate(530,33)" d="m0 0h34v5l-3 1v-2l-3-1v-1l-28-1z" fill="#168853"/>
<path transform="translate(455,222)" d="m0 0h5l6 4 5 3 1 6-8-6-3-3-3-1v-2z" fill="#14844F"/>
<path transform="translate(569,556)" d="m0 0 2 1 1 6-2 4h-2l-2-10z" fill="#126039"/>
<path transform="translate(295,400)" d="m0 0 1 3-1 5-4 3h-2l1-6z" fill="#166A40"/>
<path transform="translate(217,385)" d="m0 0 3 1 2 6v5l-3-4-2-4z" fill="#1A7A4C"/>
<path transform="translate(16,226)" d="m0 0 2 1-9 9-2 4h-2l2-5 5-5z" fill="#1D975F"/>
<path transform="translate(278,428)" d="m0 0 1 4h-3l-1 5-1 2h-2l2-8z" fill="#166940"/>
<path transform="translate(278,471)" d="m0 0 3 1v2l3 1 2 4-3 2-5-8z" fill="#1B7A4C"/>
</svg>
