<?xml version="1.0" encoding="UTF-8"?>
<svg version="1.1" viewBox="0 0 1040 1040" width="1280" height="1280" xmlns="http://www.w3.org/2000/svg">
<path transform="translate(0)" d="m0 0h1040v1040h-1040z" fill="#F6F7F7"/>
<path transform="translate(498,43)" d="m0 0h44l42 4 30 5 26 6 30 9 29 11 21 9 20 10 24 14 21 13 11 8 19 14 11 9 7 5-1 5-135 135-4-1-19-13-14-9-22-12-25-10-22-7-23-5-11-2-29-2h-17l-28 2-23 4-23 6-20 7-19 8-22 12-11 7-14 10-13 10-4 4h-2v2l-8 7-14 14-11 14-14 19-9 15-12 23-10 25-6 21-6 27-2 14-1 14v35l3 27 5 25 4 13 12 30 8 16 12 21 7 11 10 13 9 11 27 27 11 9 12 9 21 13 26 13 24 9 24 7 20 4 24 3h48l25-3 22-4 27-7 22-8 17-8 18-10 10-7 12-9 14-12 11-11 13-17 9-14 9-16 10-23 5-15 5-18-11 1h-244l-2-1 1-185 1-1h445l2 7 6 37 2 25v59l-4 39-5 30-8 36-9 30-7 19-11 25-13 27-14 24-9 14-12 17-14 17-9 10-7 8-9 9-6 7h-2l-1 3-8 7-10 9-14 11-13 10-24 16-15 9-20 11-21 10-26 10-30 10-35 9-27 5-23 3-32 2h-37l-36-3-32-5-32-7-30-9-31-11-21-9-16-8-23-12-22-14-22-15-17-14-11-9-16-15-12-11-7-8-16-17-9-11-13-17-21-32-14-24-8-15-4-10-10-23-9-25-8-26-6-25-5-27-4-33-1-13v-59l2-25 5-33 6-29 10-34 9-25 11-25 11-23 10-18 10-16 8-12 13-18 11-14 11-13 12-13 28-28 8-7 16-13 19-14 27-18 23-13 16-8 21-10 23-9 30-10 31-8 25-5 30-4z" fill="#23AB53"/>
<path transform="translate(498,43)" d="m0 0h44l42 4 30 5 26 6 30 9 29 11 21 9 20 10 24 14 21 13 11 8 19 14 11 9 7 5-1 5-135 135-4-1-19-13-14-9-22-12-25-10-22-7-23-5-11-2-29-2h-17l-28 2-23 4-23 6-20 7-19 8-22 12-11 7-14 10-13 10-4 4h-2v2l-8 7-14 14-11 14-14 19-9 15-12 23-10 25-6 21-6 27-2 14-1 14v35l3 27 5 25 4 13-1 5-10 9-16 12-10 8-19 14-17 13-14 11-16 13-13 10-21 16-18 13h-3l-1 2-8-15-12-30-11-34-6-24-5-25-5-40-1-13v-59l2-25 5-33 6-29 10-34 9-25 11-25 11-23 10-18 10-16 8-12 13-18 11-14 11-13 12-13 28-28 8-7 16-13 19-14 27-18 23-13 16-8 21-10 23-9 30-10 31-8 25-5 30-4z" fill="#DD2317"/>
<path transform="translate(520,432)" d="m0 0h445l2 7 6 37 2 25v59l-4 39-5 30-8 36-9 30-7 19-11 25-13 27-14 24-9 14-12 17-14 17-9 10-7 8-9 9-6 7h-2l-1 3-5 3-10-9-15-11-14-10-13-11-9-6-16-13-11-8-14-11-11-9-3-2v-2l-4-2-26-20-3-3-4-1 10-7 12-9 14-12 11-11 13-17 9-14 9-16 10-23 5-15 5-18-11 1h-244l-2-1 1-185z" fill="#3A8CE6"/>
<path transform="translate(91,311)" d="m0 0 6 1 11 10 14 11 12 9 8 7 12 8 11 8 12 9 9 7 8 6 14 11 11 8 14 11 11 9 6 5 2 4-4 14-6 27-2 14-1 14v35l3 27 5 25 4 13-1 5-10 9-16 12-10 8-19 14-17 13-14 11-16 13-13 10-21 16-18 13h-3l-1 2-8-15-12-30-11-34-6-24-5-25-5-40-1-13v-59l2-25 5-33 6-29 10-34 9-25 11-25z" fill="#E9B909"/>
<path transform="translate(353,282)" d="m0 0h2v3l5-1-2 1v2l2 1-13 10-10 8-3 3h-2v2l-8 7-14 14-11 14-14 19-9 15-4 7-1-3-4-1-1-5 1-2-6-1-3-2h-6l-4 3-12 2-3-1v-2l-15-1-9-4-4-10 1-1-1-10 1-4 1-9 2-3h2l1-2 3-1v-2h2v-2h2l2-4 4-2 2-8 2-2h3v2l5-3h2v2h-2l-1 8 11 1 4-3h14l5 4 4-1 3-4 5-1 1-6 9-4 5-2 1-3 6-2 4 1h10l5-2 5-4 8-2 1-2 3-4 5-2z" fill="#DF4F38"/>
<path transform="translate(253,656)" d="m0 0 9 2 5 6 4 7v5l4 1v2h2v4h2v3h2v2l3 1 4 4v2h2l2 5 3 3 5 8 1 2 6 2 4 4h3l-4-2h2l-2-5-5-4-3-7-2-1v-3h-2v-2h-2l-2-6 5 5 11 13 26 26 11 9 12 9 21 13 6 3v1h-6l-4-3-6-1 2 4 3 2 5 5 1 6h-2l-1 5-6 5-9 1v2h-11l-2-1v-2l-6-2-5-4-2-6-4-1-1-3-4-2-16-16-4-6-4-10-4-9-5-8-2-2-6-7-2-3-4-1v-2h-2v-2h-2v-2l-4-2-6-4-1-2-4-1v-2l-5-1v-6l-1-3h-2v-12l-2-1 1-10-1-4z" fill="#39B96C"/>
<path transform="translate(406,961)" d="m0 0h11l9 4 6 3h7l6 5v2l5 1v2l2 1 1 3-11 1-6 1-10-2-8-1-5-1v-2l-10-2-11-4-4-3 6-3h5z" fill="#39BA69"/>
<path transform="translate(458,992)" d="m0 0h18l4 1 13 1 64 1v1l-20 1h-37l-36-3-6-1z" fill="#3AA3A8"/>
<path transform="translate(675,761)" d="m0 0 2 1-5 4-9 5-1 2-6 2-10 4-9 4-14 5-3-1 3-2 19-7 17-8z" fill="#3AAC91"/>
<path transform="translate(393,979)" d="m0 0 11 1 21 4 7 2v2l-10-1-25-6z" fill="#3AA79E"/>
<path transform="translate(458,992)" d="m0 0h18l4 1 13 1 3 2h-12l-26-3z" fill="#3AA1AF"/>
<path transform="translate(96,739)" d="m0 0 4 2 4 7 3 7 2 4-1 3-12-21z" fill="#3AAA96"/>
<path transform="translate(432,988)" d="m0 0h14l10 2 1 2-13-1-12-2z" fill="#3A9FB3"/>
<path transform="translate(675,761)" d="m0 0 2 1-5 4-5 3h-5l4-3z" fill="#3AA89B"/>
</svg>
