<?xml version="1.0" encoding="UTF-8"?>
<svg version="1.1" viewBox="0 0 1024 1024" width="1280" height="1280" xmlns="http://www.w3.org/2000/svg">
<path transform="translate(511,137)" d="m0 0h11l17 2 15 4 16 7 15 9 15 8 14 4 6 1 40 1 18 3 18 6 13 7 16 12 13 13 12 18 9 17 8 10 10 10 14 9 18 10 13 10 11 11 10 13 8 15 5 13 3 12 2 17v31l3 15 6 16 13 22 7 15 5 19 1 7v24l-3 17-6 18-10 18-9 16-5 15-2 13v30l-3 21-5 16-8 16-9 13-11 12-14 11-16 9-14 9-11 9-11 14-14 25-11 14-9 9-11 8-14 8-14 6-17 4-18 2h-27l-16 3-13 5-18 10-10 6-15 6-17 4-9 1h-20l-14-2-16-5-17-8-18-11-12-5-13-3-7-1h-30l-21-3-18-6-16-8-16-12-10-10-11-15-11-20-8-11-6-7-13-10-22-12-12-9-12-11-10-12-9-16-6-15-4-17-1-9v-32l-4-20-7-16-8-14-6-10-6-16-4-16-1-10v-15l3-19 6-18 9-17 8-13 6-15 3-13 1-7v-32l3-19 5-15 8-16 10-14 6-7 8-7 12-9 16-9 14-9 12-11 8-11 13-23 9-12 5-6h2l1-3 11-9 14-9 16-7 19-5 8-1 40-1 17-4 14-6 18-11 12-6 16-5 10-2z" fill="#F1891B"/>
<path transform="translate(498,275)" d="m0 0h38l23 3 25 6 24 8 25 12 18 11 16 12 13 11 9 8 7 8 9 10 13 18 8 13 6 10 7 16 5 12 6 18 4 17 3 17 2 23v17l-2 25-5 25-6 21-11 26-10 19-10 15-12 16-12 13-13 13-14 11-14 10-20 12-19 9-25 9-26 6-24 3h-43l-21-3-21-5-21-7-18-8-21-11-16-11-14-11-10-9-17-17-11-14-10-14-11-19-10-21-10-30-4-20-3-23v-33l3-25 5-23 6-20 6-15 8-16 10-18 12-17 12-14 23-23 20-15 15-9 18-10 25-10 30-8z" fill="#2E364C"/>
<path transform="translate(397,409)" d="m0 0h239l6 5 9 14 13 23 8 14 11 18 1 6-4 6-11 14-12 14-11 14-13 16-8 10-11 14-14 17-10 13-9 11-13 16-10 13-13 16-10 13-11 13-4 4h-8l-7-6-13-17-11-14-8-10-11-14-10-13-13-16-9-12-10-12-9-12v-2h-2l-8-11-14-17-4-6-10-12-11-14-11-15 1-7 7-13 13-23 9-16 10-16 4-5z" fill="#050405"/>
<path transform="translate(496,245)" d="m0 0h38l27 3 24 5 23 7 24 10 23 12 11 7 17 12 15 13 8 7 12 12 9 11 11 14 10 15 9 16 13 27 9 27 6 25 3 23 1 11v30l-3 28-6 27-6 20-11 26-11 21-10 15-8 11-11 14-14 15-8 8-8 7-14 11-10 7-19 12-24 12-24 9-24 7-21 4-28 3h-24l-28-3-26-5-26-8-20-8-16-8-15-8-12-8-17-13-10-9-8-7-11-11-7-8-11-14-14-21-10-18-8-17-8-21-6-22-4-20-3-23v-42l4-28 6-26 8-24 8-18 10-19 11-17 13-17 12-14 20-20 14-11 15-11 20-12 17-9 20-8 26-8 22-5zm2 30-30 4-30 8-20 8-16 8-19 11-19 14-12 11-7 6-7 8-10 11-13 18-11 19-8 16-5 12-7 21-5 21-3 20-1 11v33l4 30 6 23 7 20 13 27 14 22 13 16 9 10 17 17 17 13 18 12 27 14 24 9 23 6 18 3 8 1h43l24-3 26-6 20-7 20-9 18-10 12-8 16-12 15-14 12-12 11-14 11-16 10-17 9-19 8-21 7-28 2-12 2-25v-17l-3-30-5-23-6-20-5-13-7-14-6-11-7-12-10-14-11-14-7-8-8-7-8-8-14-11-14-10-21-12-19-9-27-9-22-5-23-3z" fill="#F7C804"/>
<path transform="translate(498,275)" d="m0 0h38l23 3 25 6 24 8 25 12 18 11 16 12 13 11 9 8 7 8 9 10 13 18 8 13 6 10 7 16 5 12 6 18 4 17 3 17 2 23v17l-2 25-5 25-6 21-11 26-10 19-10 15-12 16-12 13-13 13-14 11-14 10-20 12-19 9-25 9-26 6-24 3h-43l-21-3-21-5-21-7-18-8-21-11-16-11-14-11-10-9-17-17-11-14-10-14-11-19-10-21-10-30-4-20-3-23v-33l3-25 5-23 6-20 6-15 8-16 10-18 12-17 12-14 23-23 20-15 15-9 18-10 25-10 30-8zm-156 103-7 8-12 19-9 17-6 15-7 22-5 26-3 19v18l4 36 6 24 7 20 9 19 15 24 13 17 14 15 8 7 12 10 17 12 18 10 18 8 27 9 25 5 17 2h26l25-3 25-6 21-7 15-6 25-15 19-14 15-14 10-10 11-14 10-14 12-21 7-15 9-27 5-23 2-16 1-27-4-30-6-26-7-20-5-12-13-22-12-17-4-3z" fill="#030202"/>
<path transform="translate(511,137)" d="m0 0h11l17 2 15 4 16 7 15 9 15 8 14 4 6 1 40 1 18 3 18 6 13 7 16 12 13 13 12 18 9 17 8 10 10 10 14 9 18 10 13 10 11 11 10 13 8 15 5 13 3 12 2 17v31l3 15 6 16 13 22 7 15 5 19 1 7v24l-3 17-6 18-10 18-9 16-5 15-2 13v30l-3 21-5 16-8 16-9 13-11 12-14 11-16 9-14 9-11 9-11 14-14 25-11 14-9 9-11 8-14 8-14 6-17 4-18 2h-27l-16 3-13 5-18 10-10 6-15 6-17 4-9 1h-20l-14-2-16-5-17-8-18-11-12-5-13-3-7-1h-30l-21-3-18-6-16-8-16-12-10-10-11-15-11-20-8-11-6-7-13-10-22-12-12-9-12-11-10-12-9-16-6-15-4-17-1-9v-32l-4-20-7-16-8-14-6-10-6-16-4-16-1-10v-15l3-19 6-18 9-17 8-13 6-15 3-13 1-7v-32l3-19 5-15 8-16 10-14 6-7 8-7 12-9 16-9 14-9 12-11 8-11 13-23 9-12 5-6h2l1-3 11-9 14-9 16-7 19-5 8-1 40-1 17-4 14-6 18-11 12-6 16-5 10-2zm-6 20-14 3-13 5-13 7-15 9-14 6-16 4-7 1h-33l-16 2-18 6-14 8-10 8-3 2v2l-4 2-9 11-9 16-9 15-9 11-11 10-14 9-21 12-14 12-10 12-9 16-6 18-1 6-1 43-3 15-6 18-10 18-8 14-5 13-3 15v21l3 15 6 16 10 17 8 15 5 15 3 14 1 43 4 17 5 13 8 13 11 13 10 8 13 8 17 10 13 10 9 9 10 14 9 17 8 12 11 12 14 10 17 8 15 4 5 1 42 1 16 3 16 6 15 8 10 6 12 6 14 4 12 2h14l14-2 15-5 19-10 13-8 15-6 13-3 7-1 41-1 15-3 13-5 12-6 9-7 10-9 10-13 13-23 9-12 7-8 14-11 17-10 12-7 13-11 9-10 9-15 7-19 2-11 1-41 4-20 6-15 9-16 6-10 6-15 3-12 1-10v-12l-4-22-10-21-8-13-7-14-5-18-1-9-1-39-3-16-6-15-6-11-9-11-11-11-14-9-18-10-13-10-10-10-9-13-12-21-9-12-13-13-13-8-16-7-16-4-43-1-19-4-13-5-17-9-9-6-17-7-11-3-7-1z" fill="#040304"/>
<path transform="translate(511,225)" d="m0 0 28 1 25 3 28 6 23 7 24 10 25 13 17 11 14 10 11 9 15 14 15 15 9 11 14 19 11 18 12 23 8 20 8 24 6 26 4 33v38l-4 30-4 19-7 25-11 27-12 24-12 19-13 18-10 11-7 8-18 18-11 9-13 10-20 13-22 12-23 10-24 8-25 6-26 4-15 1h-30l-29-3-25-5-24-7-27-11-20-10-17-10-14-10-14-11-11-10-2-1v-2l-4-2-8-8-7-8-9-10-12-16-11-17-12-22-9-20-11-33-5-23-3-21-1-15v-36l2-20 5-27 6-22 8-22 7-15 8-16 12-20 14-19 12-14 5-6 7-6 13-13 11-9 13-10 20-13 22-12 24-10 22-7 26-6 27-4zm-15 20-31 4-30 8-25 9-19 9-22 13-14 10-14 11-12 11-16 16-9 11-15 20-14 24-10 21-8 22-7 28-4 24-1 9v42l5 35 6 23 7 20 9 21 9 17 10 16 8 11 11 14 15 16 8 8 8 7 18 14 17 11 24 13 25 10 26 8 26 5 28 3h24l28-3 25-5 26-8 20-8 24-12 17-11 18-13 12-11 8-7 11-11 9-11 11-14 8-12 8-13 10-19 8-19 7-21 6-26 3-22 1-11v-30l-3-29-5-23-8-26-9-21-11-22-11-17-8-11-13-16-11-12-10-10-11-9-14-11-15-10-22-12-17-8-19-7-25-7-23-4-20-2z" fill="#030202"/>
<path transform="translate(159,793)" d="m0 0h25l16 4 16 8 14 12 8 10 8 16 4 13 1 7v17l-3 15-7 16-9 12-10 10-11 7-10 5-13 4-8 1h-18l-16-4-16-8-11-8-7-7-9-13-6-14-3-10-1-7v-13l3-17 5-12 5-9 7-9 10-10 14-9 13-5z" fill="#C4FBE2"/>
<path transform="translate(505,294)" d="m0 0h28l28 4 20 5 23 8 22 11 19 12 13 10 13 11 2 4-6 1h-306v-4l10-9 9-7 21-14 12-7 19-9 29-9 18-4z" fill="#212636"/>
<path transform="translate(459,497)" d="m0 0h116l1 3-6 15-16 42-19 50-14 36-4 11-3-2-15-41-17-47-16-44-7-18z" fill="#B7E0FC"/>
<path transform="translate(159,793)" d="m0 0h25l16 4 16 8 14 12 8 10 8 16 4 13 1 7v17l-3 15-7 16-9 12-10 10-11 7-10 5-13 4-8 1h-18l-16-4-16-8-11-8-7-7-9-13-6-14-3-10-1-7v-13l3-17 5-12 5-9 7-9 10-10 14-9 13-5zm10 19-13 2-12 5-10 7-9 9-8 14-3 10-1 16 2 12 5 13 8 11 9 8 14 8 11 3h20l14-4 13-8 10-10 8-13 3-9 1-6v-17l-4-15-8-14-8-8-14-9-13-4z" fill="#050406"/>
<path transform="translate(872,133)" d="m0 0h18l10 3 9 5 10 9 7 11 4 12v18l-3 10-7 12-9 9-14 7-8 2h-16l-13-4-11-7-9-10-6-12-2-8v-15l4-14 7-11 11-10 11-5z" fill="#050506"/>
<path transform="translate(488,428)" d="m0 0h58l6 9 13 24 8 13v3h-112l2-5 8-14 6-12 10-17z" fill="#8ECBF7"/>
<path transform="translate(382,497)" d="m0 0h54l3 5 13 35 10 28 12 32 7 20 2 4-1 4-8-9-10-13-13-16-10-13-22-28-13-16-10-13-11-14-3-4z" fill="#8ECBF7"/>
<path transform="translate(598,497)" d="m0 0h54l-2 5-14 17-11 14-39 48-8 10-11 14-9 11-6 8-3 1 3-10 12-31 6-15 7-20 14-36 5-14z" fill="#8ECBF7"/>
<path transform="translate(407,428)" d="m0 0h56v4l-12 23-12 22h-61l6-12 21-36z" fill="#B5DFFC"/>
<path transform="translate(581,428)" d="m0 0h47l6 9 14 25 8 13v2h-60l-13-23-10-18-3-5v-2z" fill="#B6E0FC"/>
<path transform="translate(874,153)" d="m0 0h14l8 3 9 8 5 10 1 11-2 9-6 8-7 6-7 3h-15l-8-3-8-7-5-9-1-4v-13l4-9 6-7 9-5z" fill="#C4FAE2"/>
<path transform="translate(600,236)" d="m0 0 12 2 12 3 4 2 3 1 5 1 2 5 7 2 12 7 11 5 4 1h3l13 8v2l5 2 4 2 5 5 10 9 6 7 2 5 2 1v2l6 1 9 9v2l4 2v2h2v2h2l5 6 1 4 4 1 5 5 8 13 3 5 3 8 7 6v2l5 2v3h2l5 12 4 10 1 5-1 8h2l2 13 1 3h-2v2l-3-1-7-19-3-5-11-24-9-17-12-18-12-16-12-14-19-19-8-7-17-13-20-13-22-12-17-8-27-10z" fill="#FB931B"/>
<path transform="translate(445,232)" d="m0 0 3 1-7 3-20 6-21 8-17 8-19 11-16 11-13 10-14 12-6 6h-2l-1 3-5 5h-2l-2 4-11 12-12 16-10 15-10 18-8 16-8 19-5-1 1-4h2v-7l1-3h2v-4l2-1 1-5 1-3h2l1-6 1-2h2l1-4 2-2h3l1-4 3-7v-4h2l6-12 8-12 3-5 5-5 9-10 9-8 4-2 7-9 4-5 4-3h2v-2l5-2 1-3 4-1v-2l17-12 17-10h4v-2l5-4 10-4 9-4 11-4 9-3h6 3l1-1z" fill="#FB931B"/>
<path transform="translate(486,312)" d="m0 0 5 1 2 3v4l10 2 8 1 1-3 2 1-2 7-3 1v2h-2l-1 5-5 3-7 2-2 3-5-1-5 2-7-1-2-1-1 5-4 2h-16l-1-5 2-4-4-3-1-6 4-3 13-1 4-1 1-4 5-5 10-5z" fill="#2F374D"/>
<path transform="translate(539,591)" d="m0 0 1 3-19 49-4 11-3-2-15-41-1-5 3 1 2-2 5 1 7 5 6-2 8-8h4v-2h2l2-5z" fill="#A2D6F7"/>
<path transform="translate(340,203)" d="m0 0 4 1-8 5-8 7-3 1-2 5-2 4-3 2-3 3-2 4-5 5-9 19-3 6-8 7-3 1-2 4-8 8-4 3h-2l-1 2-7 4-9 6-8 4-9 6h-2v2l-4 1-1 3-4 2-1 2h-2v2h-2l-2 5-8 12-4 5-2-1 1-5 8-12 11-12 12-9 21-12 13-9 12-11 11-15 12-22 7-9 6-7h2v-2l13-10z" fill="#FB931B"/>
<path transform="translate(332,920)" d="m0 0 8 1 6 4 3 5 1 7-4 8-7 5h-9l-8-7-3-8 2-6 6-7z" fill="#060607"/>
<path transform="translate(107,270)" d="m0 0 8 2 6 5 2 4v8l-5 8-6 3h-8l-6-4-4-5-1-8 3-6 7-6z" fill="#060607"/>
<path transform="translate(764,891)" d="m0 0h8l6 4 4 5 1 9-4 6-6 5-7 1-8-4-4-5-1-3v-7l4-6 4-4z" fill="#050506"/>
<path transform="translate(894,733)" d="m0 0 9 2 5 4 3 6v6l-5 8-7 4h-7l-6-4-4-5-1-2v-7l3-6 6-5z" fill="#060507"/>
<path transform="translate(734,74)" d="m0 0h9l8 6 2 4v9l-6 8-4 2h-9l-5-3-4-5-2-9 4-7 5-4z" fill="#050506"/>
<path transform="translate(118,683)" d="m0 0 7 3 7 8 1 2v6l-6 9-5 3h-7l-8-5-5-10 3-7 4-5 5-3z" fill="#060607"/>
<path transform="translate(280,84)" d="m0 0h10l6 4 4 5v10l-5 7-5 3h-8l-7-4-4-6-1-7 5-8z" fill="#050506"/>
<path transform="translate(750,759)" d="m0 0 1 2-4 7-9 14-10 18-12 14-10 9-13 8-12 5h-7l-1-2 11-7 8-4 11-7 6-4 14-18 6-11 4-7h2l1-5 5-5 8-6z" fill="#FB931B"/>
<path transform="translate(756,279)" d="m0 0 6 3 12 9 18 10 11 7 10 9 7 7 9 13 6 13-1 5-2-1v-2h-3l-2-2-3-7-2-2-1-7v-3l-5-5-1-3-4-1v-2l-9-3-6-5-10-5-1-2-7-3-5-3-2-1v-2l-4-1-2-5h-2v-2l-4-2-3-5z" fill="#FA921B"/>
<path transform="translate(459,497)" d="m0 0h116l1 3-3 7-5-3-2-5h-29l-6 3h-2l-1 3h-2v2h-2l-1 3h-2v2h-2v-2h-3l-2 7-5 2-1-5 2-1 1-4h-2l-5-6-4-3v-2l-26 1h-14l-1 3z" fill="#A6D8F7"/>
<path transform="translate(581,428)" d="m0 0h47l-1 2h-2l-1 4-9-1-1-1h-9l-6 1-2 5-8 6-3 3h-7l-9-16v-2z" fill="#A1D5F7"/>
<path transform="translate(407,428)" d="m0 0h56v4l-9 17-7-1-5-7-7-4v-2h-3l-1-3-5-1h-20l-2 1 1-3z" fill="#A0D5F7"/>
<path transform="translate(639,453)" d="m0 0h3l4 5 8 14 2 5h-46v-1l27-1-1-2-12-2-2-4 3-3 7-1 2-8z" fill="#A2D6F7"/>
<path transform="translate(229,461)" d="m0 0h1v10l-2 13-2 4v6l-1 1v29l-1 11-2 3-3-6-1-11v-28l3-16 4-10 3-3z" fill="#FC941B"/>
<path transform="translate(765,671)" d="m0 0h2l-1 5-4 7h-2l-1 4-9 12h-2l1 3-3 2-12 12-4 2v2h-2v2h-2l-2 4h-2l-1 4-5 4h-2l-2 4h-2v2l-8 6-3 1-1 3-9 5-5 2 10-10 13-11 10-9 16-16 9-11 8-10 7-9h2l2-5z" fill="#FA921B"/>
<path transform="translate(826,695)" d="m0 0h1v5l-7 9-9 10-13 10-23 13-8 6-3-1 1-5 3-3 8-4 1-2 7-4 14-9 5-4h2v-2l5-4 3-3h2l1-2h4l4-7z" fill="#FB931B"/>
<path transform="translate(594,842)" d="m0 0h11l-3 1v2l-16 6-28 16-11 5h-5l2-4 7-6 10-5h2v-2l14-7 12-5z" fill="#FC941B"/>
<path transform="translate(164,543)" d="m0 0 4 2 1 4 2 1 2 7 2 1 4 7 5 9 5 13 1 7-2 3-1-7-4-2-8-15-10-17-2-6v-6z" fill="#FB931B"/>
<path transform="translate(531,522)" d="m0 0 3 1v2l4 2 8 7 7 1 3 4h4l-3 10-4 11h-1l-1-9-4-3-3-5-1-3h-2l-6-8-2-1v-3h-2l1-3z" fill="#A3D7F7"/>
<path transform="translate(709,216)" d="m0 0 4 1 10 10 10 15 8 14v3l-5-1-3-5-3-3-1-5h-2l-2-4h-2l-6-8-2-6h-2l-4-8z" fill="#FB931B"/>
<path transform="translate(271,282)" d="m0 0 2 1-9 10-6 3-9 5-10 6-4 3h-2v2l-4 1-1 3-4 2-1 2h-2v2h-2l-2 5-8 12-4 5-2-1 1-5 8-12 11-12 12-9 21-12 13-9z" fill="#FA921B"/>
<path transform="translate(867,550)" d="m0 0 2 1-1 6-6 11-9 15-5 11h-2l-1 3-1-4 1-9 4-8h2l1-6 1-2h2l2-6 5-8 2-3z" fill="#FA921B"/>
<path transform="translate(539,160)" d="m0 0 9 2 15 7 15 9 3 3 13 6v1l-7-1-6-1v-2l-8-1-6-4v-2l-6-1-6-5-9-3-5-3-5-2-1-2z" fill="#FB931B"/>
<path transform="translate(268,363)" d="m0 0v3l-11 20-9 20-4 10-5-1 1-4h2v-7l1-3h2v-4l2-1 1-5 1-3h2l1-6 1-2h2l1-4 2-2h3l1-4 4-6z" fill="#FA921B"/>
<path transform="translate(189,436)" d="m0 0 3 1-1 7-2 4-2 5-3 9-3-1-2 5-3 1-1 5-5 5-3 1 1-6 11-18 7-16z" fill="#FB931B"/>
<path transform="translate(721,428)" d="m0 0 3 4 8 23 5 23 4 30-1 27-3 21-2 9h-1l1-10 3-31v-11l-2-24-5-26-6-21-4-10z" fill="#212636"/>
<path transform="translate(791,617)" d="m0 0 1 2h2l-2 5-2 9-1 3h-2l-2 9-3 6-3 4h-2l-2 4h-3l-1 3-1-3 12-24 6-15z" fill="#FA921B"/>
<path transform="translate(261,658)" d="m0 0h2l8 14 11 16 11 14 8 9v3l-3-1-5-5v-2l-4-2-10-11-2-5-4-4v-2h-2l-2-5-2-4-3-3-2-6z" fill="#FA921B"/>
<path transform="translate(314,728)" d="m0 0h4v2l4 2 11 10 20 15 4 5 5 3-2 1-8-3v-2h-3l-3-3-6-3-8-7-4-5-4-4h-3v-2h-2l-1-3-4-4z" fill="#F9911B"/>
<path transform="translate(459,497)" d="m0 0h116l1 3-3 7-5-3-2-5h-106l-1 3z" fill="#8ECBF7"/>
<path transform="translate(200,678)" d="m0 0 3 3 1 3 2 4v5h2l5 8 3 5 3 2v2l4 2 7 8 4 4v2l-4-1-11-9-10-12-7-12-3-7v-6z" fill="#FA921B"/>
<path transform="translate(288,766)" d="m0 0h2l1 3 4 4v2l3 1 3 5 6 11v3h2l4 6 5 7v4l-4-1-9-12-14-25-3-4z" fill="#FA921B"/>
<path transform="translate(752,458)" d="m0 0 2 3 5 26 2 21v19l-3 24-3 17-2 3 1-9 2-12 2-25v-17l-3-30-3-15z" fill="#F58D1B"/>
<path transform="translate(779,447)" d="m0 0 2 3 5 23 3 29v30l-3 28-1 5h-1l1-16 1-9v-44l-2-15-2-16-3-13z" fill="#F78F1B"/>
<path transform="translate(497,528)" d="m0 0 3 1-2 4-9 10-1 3-8 5-2 2-2-5 1-5h3l1-3 9-7 6-4z" fill="#A4D7F7"/>
<path transform="translate(480,164)" d="m0 0 4 1-11 7-8 5-3 2-2 3-4 1-8 3h-3v2l-3 1-5-1 1-2 12-5 17-10z" fill="#FA921B"/>
<path transform="translate(376,774)" d="m0 0 6 2 21 10 26 10-2 2-8-3-7-2-11-3-1-2-3 1v-2l-5-1-6-4h-2v-2l-4-1v-2l-4-1z" fill="#FD951B"/>
<path transform="translate(570,429)" d="m0 0 19 1 2 2h-4l-1 4-5 1-2 6h-2l-7-12z" fill="#B2DEFB"/>
<path transform="translate(668,197)" d="m0 0h11l16 7 6 4v2h-6l-12-6-7-2-8-4z" fill="#FA921B"/>
<path transform="translate(760,508)" d="m0 0h1v19l-3 24-3 17-2 3 1-9 2-12 2-25 1-1z" fill="#F8901B"/>
<path transform="translate(261,658)" d="m0 0h2l8 14 5 7-1 2-5-2-2-5-4-4-2-6z" fill="#F8901B"/>
<path transform="translate(362,766)" d="m0 0 3 1v2l3-1 2 1v3l6 5-1 2-18-9 2-3z" fill="#FD951B"/>
<path transform="translate(271,282)" d="m0 0 2 1-9 10-6 3-6 4-3-1v-2l15-9z" fill="#F78F1B"/>
<path transform="translate(518,640)" d="m0 0h2l-1 9-2 5-3-2v-10z" fill="#A9D9FA"/>
<path transform="translate(302,715)" d="m0 0 6 4 4 4 1 4-4 1-4-5v-2h-2z" fill="#FB931B"/>
<path transform="translate(571,595)" d="m0 0h2l-2 5-11 13-2 3h-2l2-5 6-7h2l1-4z" fill="#9FD4F7"/>
<path transform="translate(842,428)" d="m0 0 2 3v3h2l2 6v4h-2l-3-5v-2h-2l-1-4z" fill="#FB931B"/>
<path transform="translate(573,498)" d="m0 0h3l-3 9-5-3-2-5z" fill="#A3D7F7"/>
<path transform="translate(834,675)" d="m0 0h2l-1 9-3 3-2 5-2-4 2-5h2l1-7z" fill="#FA921B"/>
<path transform="translate(855,458)" d="m0 0 3 1 2 8-2 2-3-1-2-6z" fill="#FB931B"/>
<path transform="translate(558,224)" d="m0 0 8 1-1 3-2 1-9-1-1-2z" fill="#FB931B"/>
<path transform="translate(632,440)" d="m0 0 4 1 2 5-3 2h-4v-7z" fill="#A5D8F7"/>
<path transform="translate(268,363)" d="m0 0v3l-7 13-1-3 2-6 4-6z" fill="#F68E1B"/>
<path transform="translate(699,743)" d="m0 0v3l-5 6-8 5-2-1 8-6 5-5z" fill="#F9911B"/>
<path transform="translate(246,629)" d="m0 0 3 1 4 9-1 4-2-2-4-9z" fill="#F8901B"/>
<path transform="translate(826,695)" d="m0 0h1v5l-6 8-1-3 4-7z" fill="#F8901B"/>
<path transform="translate(594,842)" d="m0 0h11l-3 1v2l-6 1v-2h-2z" fill="#F9911B"/>
</svg>
