<?xml version="1.0" encoding="UTF-8"?>
<svg version="1.1" viewBox="0 0 2048 2048" width="1280" height="1280" xmlns="http://www.w3.org/2000/svg">
<path transform="translate(1008)" d="m0 0h32l21 6 16 7 11 7 13 11 9 10 10 15 8 19 4 16 6 33 2 5 30 8 10 4 7 6 4 6 3 9v8l-1 4 9 4 28 11 24 11 12 6 8-9 10-5 4-1h9l11 4 20 12h5l20-14 16-11 16-8 15-5 10-2h32l18 4 16 7 13 8 10 8 12 12 7 10 6 10 6 15 4 15 1 6v27l-4 18-6 16-8 14-10 14-11 16-1 7 17 29 8 14 11 23 8 17 14 36 8 25 11 41 2 4 47 9 15 5 15 8 11 8 10 9 10 12 9 15 6 15 4 17 1 7v20l-4 21-6 15-7 13-8 11-7 8-11 9-10 7-15 7-20 6-38 7-3 1-11 41-12 37-10 26h202l10 3 8 6 6 10 2 9v543h224l12 2 9 4 10 6 10 9 9 14 6 15v479l-6 16-7 11-11 11-14 8-14 5h-517l-16-6-11-7-12-12-8-14-3-10-1-7v-471l3-12 6-12 8-10 9-8 10-6 11-4 8-1h225v-511l-199 1-13 22-1 7 8 12 14 20 9 16 6 16 3 15v28l-5 21-7 16-7 12-9 11-10 10-18 12-16 7-14 4-12 2h-23l-20-4-15-6-11-6-23-16-14-9-6 2-21 13-24 13-22 11-26 11-30 11-33 10-27 7-3 2-4 20-6 29-6 16-9 16-12 15-8 7-10 7-19 10-10 4-1 116h224l12 2 16 8 9 7 7 8 8 14 3 10 1 7v467l-3 15-7 14-9 11-13 9-13 6-7 2h-517l-16-6-11-7-9-8-9-14-5-13-1-5v-475l5-16 9-14 9-9 13-8 12-4 6-1 225-1 1-115-9-3-16-8-11-7-10-9-5-5-7-8-8-13-5-10-5-15-5-25-4-21-7-3-31-8-25-8-28-10-26-11-29-14-24-14-21-12-6 2-15 11-16 11-17 9-15 5-16 3h-24l-16-3-16-6-15-8-13-10-11-11-10-14-8-16-5-15-3-19v-14l3-18 5-16 10-19 13-18 10-15-1-7-13-22-199-1v511h224l12 2 16 8 10 8 9 11 6 13 2 7 1 10v456l-1 15-5 15-7 11-11 11-14 8-14 5h-517l-16-6-11-7-12-12-8-14-4-11v-111l7-11 8-6 7-3h7l1-79-9-1-12-7-6-8-3-6v-249l7-16 7-11 8-8 12-8 13-5 7-1h226v-547l4-10 7-8 10-5 4-1h203l-9-23-8-23-8-26-7-28-1-5-15-2-27-5-15-4-14-6-14-9-14-12-12-15-9-16-7-21-2-11v-26l4-19 6-15 6-11 10-14 12-12 14-10 16-8 21-6 35-6 5-2 11-42 12-36 13-32 14-29 10-19 17-28 1-7-8-12-14-20-9-16-6-16-3-14-1-8v-14l3-19 6-18 8-15 9-12 9-10 10-8 11-7 12-6 15-5 11-2h32l17 4 12 5 15 8 17 12 16 11 6-1 14-8 13-8 20-11 23-11 23-10 24-9 31-10 36-9 4-4 3-14 6-31 5-15 9-17 10-13 11-11 16-11 17-8 13-4z" fill="#010001"/>
<path transform="translate(1e3 298)" d="m0 0h47l31 3 32 6 26 7 20 7 25 10 26 13 20 12 19 13 18 14 14 12 15 14 7 7 7 8 9 10 11 14 13 18 12 19 15 28 11 25 12 36 6 24 5 28 2 17 1 16v37l-2 28-5 30-8 32-8 24-10 24-11 23-13 22-8 12-12 17-14 17-11 12-14 15-8 7-11 10-14 11-16 12-19 12-18 10-15 8-24 10-19 7-28 8-29 6-31 4-16 1h-34l-32-3-30-5-24-6-30-10-26-11-22-11-22-13-16-11-12-9-10-8-13-11-30-30-9-11-13-16-18-27-11-19-11-23-10-24-9-27-7-29-4-24-3-29v-47l3-29 5-28 6-24 10-30 9-21 12-25 13-22 11-16 9-12 10-13 11-12 7-8 18-18 11-9 13-11 18-13 19-12 29-16 25-11 22-8 28-8 24-5 21-3z" fill="#F7FBFD"/>
<path transform="translate(1016,60)" d="m0 0h14l12 3 10 5 10 9 7 12 4 13 7 38 5 14 6 10 8 9 10 7 12 6 26 7 10 2h14l8-3 9-8 5-9 20 7 26 11 25 12 2 4-2 6v13l4 9 6 7 19 12 16 8 12 3h18l15-4 14-7 17-12 13-9 14-7 10-2 14 1 12 4 10 7 8 8 8 16 1 4v20l-4 11-12 18-13 19-8 15-3 12v21l3 12 10 19 8 13 11 19 11 23 9 20 10 27 6 19 8 29 6 21 7 13 8 9 13 9 8 4 19 5 29 5 15 5 11 8 6 7 7 14 2 7v16l-3 10-7 12-10 10-11 6-17 4-32 6-12 4-12 7-11 10-7 11-6 15-9 35-6 19-7 20-9 22-10 22-12 22-12 21-6 10-5 10-3 12v21l3 12 7 14 13 18 10 15 6 13 1 4v19l-4 11-6 9-7 8-11 7-13 4-9 1-15-3-15-8-19-14-13-8-10-5-12-3h-22l-16 5-17 10-15 9-26 14-29 13-29 11-26 8-38 10-10 4-13 9-7 7-8 13-4 11-5 24-4 22-5 12-7 9-7 7-14 7-11 2h-9l-13-3-11-6-8-7-7-11-4-10-7-38-5-17-8-13-9-10-11-7-14-6-39-10-36-12-24-10-25-12-23-12-13-8-15-9-14-5-5-1h-22l-14 4-14 8-15 11-15 10-10 5-15 3-14-2-12-5-8-6-9-10-6-13-2-9 1-14 5-14 8-12 12-17 9-15 4-9 2-10v-19l-4-15-8-15-11-18-12-22-12-25-11-27-11-33-7-26-4-16-5-12-9-13-9-8-14-8-18-5-34-6-11-4-11-7-7-8-7-14-2-7v-15l4-14 7-11 10-9 12-6 24-5 25-5 11-4 12-7 8-7 9-13 5-12 12-45 9-27 10-25 13-28 13-24 12-20 8-16 3-12v-20l-4-14-8-15-13-18-10-15-5-13-1-5v-8l2-11 4-10 8-11 10-8 8-4 13-3h8l16 4 11 6 18 13 15 10 11 5 12 3h18l15-4 16-8 13-8 21-12 28-14 32-13 30-10 45-12 16-8 10-8 8-11 5-10 3-10 5-26 4-19 4-9 6-9 9-8 12-6zm-16 238-31 3-27 5-24 6-30 10-30 13-24 13-21 13-18 13-16 13-15 13-20 20-7 8-10 12-12 16-16 24-13 23-12 25-11 29-8 27-7 34-3 23-1 13v47l3 29 4 24 7 29 10 30 10 23 8 17 13 23 14 21 9 12 13 16 12 13 26 26 11 9 17 13 13 9 18 11 18 10 25 12 26 10 26 8 28 6 27 4 24 2h34l26-2 32-5 26-6 29-9 27-11 16-8 21-11 22-14 21-16 11-9 12-11 13-12 9-10 11-12 11-14 12-17 11-17 12-21 11-23 10-26 8-25 7-30 4-25 2-28v-37l-2-26-5-30-6-25-6-20-9-25-14-30-13-23-14-21-9-12-8-10-12-14-15-16-7-7-8-7-14-12-16-12-16-11-20-12-23-12-20-9-24-9-29-8-24-5-21-3-22-2z" fill="#5D9CFA"/>
<path transform="translate(61,1528)" d="m0 0h498l1 1v458l-2 1h-497l-1-1-1-92-3-12-5-8-10-6-12-3 1-78 13-4 6-4 3-1 2-4 4-10 1-5 1-231z" fill="#F7FAFD"/>
<path transform="translate(775,1528)" d="m0 0h497l2 3v456l-3 1h-496l-1-1-1-125v-208l1-125z" fill="#5D9CFA"/>
<path transform="translate(1489,1528)" d="m0 0h476l22 1 1 3-1 454-1 1-65 1h-431l-1-1-1-9v-449z" fill="#FEDE7D"/>
<path transform="translate(1e3 238)" d="m0 0h40l28 2 29 4 29 6 35 10 29 11 26 12 28 15 23 15 17 12 13 10 14 12 12 11 8 7 7 8 9 9 7 8 13 16 10 13 11 16 12 19 12 22 8 16 11 25 12 35 8 31 5 27 4 33 1 17v35l-2 28-3 24-5 26-8 31-11 32-11 26-8 17-13 23-14 22-13 18-11 14-13 15-12 13-17 17-8 7-14 12-13 10-18 13-21 13-16 9-23 12-29 12-19 7-28 8-21 5-36 6-20 2-18 1h-31l-30-2-28-4-29-6-29-8-26-9-21-9-25-12-25-14-21-14-18-13-17-14-13-12-2-1v-2l-4-2-16-16v-2h-2v-2h-2l-7-8-12-14-12-16-12-17-12-19-10-18-8-15-11-25-10-27-8-27-6-25-5-31-2-21-1-17v-34l3-39 6-36 8-32 10-30 9-22 7-16 10-19 12-21 8-12 14-20 11-14 11-13 15-16 17-17 8-7 10-9 14-11 19-14 16-10 13-8 29-15 21-10 27-10 29-9 26-6 31-5 19-2zm-3 60-31 3-27 5-24 6-30 10-30 13-24 13-21 13-18 13-16 13-15 13-20 20-7 8-10 12-12 16-16 24-13 23-12 25-11 29-8 27-7 34-3 23-1 13v47l3 29 4 24 7 29 10 30 10 23 8 17 13 23 14 21 9 12 13 16 12 13 26 26 11 9 17 13 13 9 18 11 18 10 25 12 26 10 26 8 28 6 27 4 24 2h34l26-2 32-5 26-6 29-9 27-11 16-8 21-11 22-14 21-16 11-9 12-11 13-12 9-10 11-12 11-14 12-17 11-17 12-21 11-23 10-26 8-25 7-30 4-25 2-28v-37l-2-26-5-30-6-25-6-20-9-25-14-30-13-23-14-21-9-12-8-10-12-14-15-16-7-7-8-7-14-12-16-12-16-11-20-12-23-12-20-9-24-9-29-8-24-5-21-3-22-2z" fill="#010001"/>
<path transform="translate(1490,1528)" d="m0 0h475l22 1 1 3-1 454-1 1-65 1h-422l-2-2 12-1 25-1h361l3-1v-66l2-3h2v-2l6-2 2-5 3-6 1-8-3-15-5-4-1-4-3-2-2-6-2-4-1-62 2-6 1-2h2v-2l6-4 5-10v-10l-1-3-2-1-2-9-2 2-5-10-3-5-1-13 1-7v-49l-1-103v-9l1-17 1-4 7-1 13-1-429-1z" fill="#FDCE68"/>
<path transform="translate(888,558)" d="m0 0 11 2 9 6 6 7 4 11v187l-3 10-6 8-9 6-6 2h-11l-9-3-8-6-9-12-28-42-17-25-10-15-3-4v-2h-2v84l-3 9-4 6-7 6-10 4h-10l-10-3-8-6-5-7-2-6-1-7v-171l1-16 4-9 5-6 10-6 3-1h15l10 5 8 8 44 66 12 17 8 12 2 1-1-2v-82l3-9 6-8 8-6 5-2z" fill="#010001"/>
<path transform="translate(1157,559)" d="m0 0h81l16 4 17 8 14 11 9 10 8 14 6 15 2 10v24l-4 16-5 12-7 11-9 10-9 8-14 8-16 6-13 2h-38v40l-2 10-5 9-9 7-8 3h-11l-11-4-9-8-4-8-1-5v-189l4-10 7-8 8-5z" fill="#010001"/>
<path transform="translate(1592,1728)" d="m0 0h292l10 4 8 7 5 10 1 3v12l-4 10-6 7-10 6-4 1h-290l-10-3-8-6-6-9-2-6v-13l4-9 7-8 9-5z" fill="#010001"/>
<path transform="translate(1591,1856)" d="m0 0h292l11 4 8 7 5 10 1 3v11l-4 11-6 7-10 6-4 1h-290l-10-3-8-6-6-9-2-6v-13l4-9 7-8z" fill="#010001"/>
<path transform="translate(876,1856)" d="m0 0h293l11 4 8 7 5 10 1 4v10l-3 9-6 8-10 6-6 2h-289l-10-3-8-6-6-9-2-6v-12l4-10 8-9z" fill="#010001"/>
<path transform="translate(876,1728)" d="m0 0h293l11 4 8 7 5 10 1 4v10l-3 9-6 8-10 6-6 2h-289l-10-3-9-7-6-10-1-4v-12l4-10 8-9z" fill="#010001"/>
<path transform="translate(163,1856)" d="m0 0h292l11 4 8 7 5 10 1 12-4 13-5 6-10 6-9 2h-284l-9-2-10-6-6-8-3-9v-10l4-10 4-6 8-6z" fill="#010001"/>
<path transform="translate(163,1728)" d="m0 0h291l10 3 8 6 6 9 2 9-1 11-4 9-4 5-10 6-9 2h-284l-9-2-10-6-6-8-3-10v-9l4-10 4-6 8-6z" fill="#010001"/>
<path transform="translate(988,559)" d="m0 0h15l8 3 9 8 5 10 1 4v153h34l9 2 10 6 6 9 3 9v8l-3 10-6 8-9 6-7 2h-73l-10-4-8-7-5-9-1-5v-189l4-10 7-8 8-5z" fill="#010001"/>
<path transform="translate(1591,1600)" d="m0 0h172l11 4 8 7 5 10 1 3v12l-4 10-7 8-10 5-4 1h-169l-10-3-8-6-6-9-2-6v-13l4-9 7-8 7-4z" fill="#010001"/>
<path transform="translate(876,1600)" d="m0 0h174l10 4 8 7 5 10 1 4v10l-3 9-6 8-9 6-7 2h-169l-10-3-9-7-6-10-1-4v-12l4-10 8-9z" fill="#010001"/>
<path transform="translate(163,1600)" d="m0 0h172l11 4 8 7 5 10 1 12-3 10-5 8-9 6-5 2-7 1h-163l-9-2-10-6-6-8-3-9v-10l4-11 8-9 8-4z" fill="#010001"/>
<path transform="translate(1196,618)" d="m0 0 37 1 8 4 6 7 4 10v7l-4 10-5 6-8 4-5 1h-34v-49z" fill="#F5FAFD"/>
<path transform="translate(1488,1533)" d="m0 0h1l1 63 2 61 1 14v188l-1 83v39l-2 5h-1l-1-8z" fill="#E8C87B"/>
<path transform="translate(1985,1529)" d="m0 0 3 1-1 456h-11l4-1-2-3 1-5 4-13 1-7v-408l1-9-3-6 1-4z" fill="#FED773"/>
<path transform="translate(1705,1851)" d="m0 0h63l54 2 17 1 42 1v1h-254l-9-1v-1l46-2z" fill="#FBCE6A"/>
<path transform="translate(1673,1724)" d="m0 0h59l61 2 89 1v1h-288v-1l44-2z" fill="#FECF68"/>
<path transform="translate(1663,1596)" d="m0 0h57l26 1 16 2v1h-168v-1z" fill="#F3CB71"/>
<path transform="translate(1985,1529)" d="m0 0 3 1-1 42-1 122-2-1v-144l1-9-3-6 1-4z" fill="#FFDF7E"/>
<path transform="translate(1985,1529)" d="m0 0 3 1-1 11-2-1-3-6 1-4z" fill="#FEDE7C"/>
<path transform="translate(1907,1746)" d="m0 0 3 3-1 13h-1z" fill="#FED976"/>
</svg>
