<?xml version="1.0" encoding="UTF-8"?>
<svg version="1.1" viewBox="0 0 900 900" width="1280" height="1280" xmlns="http://www.w3.org/2000/svg">
<path transform="translate(0)" d="m0 0h900v900h-900z" fill="#F5F5F5"/>
<path transform="translate(426,145)" d="m0 0h45l25 2 28 5 16 5 13 5 13 7 12 9 8 8 7 11 4 9 2 8v157l-3 16-6 15-7 10-11 11-13 8-16 6-13 3-10 1-165 1-15 3-14 5-12 8-8 7-9 13-6 12-4 14-2 10-1 86h-62l-14-4-12-6-10-8-10-10-10-15-8-17-6-20-4-19-3-27v-48l3-26 6-25 6-16 8-15 11-14 8-8 15-10 15-6 15-3h219v-20l-148-1v-78l4-12 7-10 9-9 13-8 13-6 18-6 26-5 17-2z" fill="#3672A4"/>
<path transform="translate(619,299)" d="m0 0h61l16 5 11 6 10 8 8 8 10 14 8 17 7 21 5 25v93l-6 26-7 19-7 13-9 12-9 10-14 10-16 7-13 3-16 1-207-1v21h148v80l-4 11-8 11-10 9-17 10-27 9-27 5-20 2-22 1h-24l-29-2-30-5-21-6-18-8-11-7-11-9-9-12-6-13-2-8v-157l3-16 5-12 7-12h2l2-4 7-7 11-7 11-5 17-5 6-1 165-1 21-3 16-6 11-7h2v-2l8-7 7-10 7-14 5-17 1-8 1-84z" fill="#FED242"/>
<path transform="translate(362,192)" d="m0 0h10l10 4 7 7 4 8 1 11-4 11-6 7-10 5h-14l-10-5-6-7-3-7-1-10 3-10 5-7 10-6z" fill="#F5F5F5"/>
<path transform="translate(531,654)" d="m0 0h8l9 3 9 8 3 5 2 13-3 10-6 8-6 4-6 2h-11l-10-4-7-7-4-8v-14l5-10 8-7z" fill="#F5F5F5"/>
</svg>
