<?xml version="1.0" encoding="UTF-8"?>
<svg version="1.1" viewBox="0 0 900 900" width="1280" height="1280" xmlns="http://www.w3.org/2000/svg">
<path transform="translate(0)" d="m0 0h900v900h-900z" fill="#F7F7F7"/>
<path transform="translate(246,122)" d="m0 0h339l8 7 8 8 8 7 31 31 7 8 16 16 8 7 2 4 4 2v2h2l8 10 1 183 41 1 18 1 2 1 1 4 1 18v224l-1 27-3 4-6 1-53 1-1 80-2 8-3 2h-462l-4-2-1-2-1-86-52-1-9-1-1-1-1-15v-256l2-5 1-1 60-2 1-279 3-5z" fill="#FACEB4"/>
<path transform="translate(241,141)" d="m0 0h331l1 1v34l1 14 3 11 6 11 9 10 10 7 12 5 12 2h41l1 99v72l-1 1h-433l-1-7v-258l1-1z" fill="#E1F2FC"/>
<path transform="translate(246,122)" d="m0 0h339l8 7 8 8 8 7 31 31 7 8 16 16 8 7 2 4 4 2v2h2l8 10 1 183 41 1 18 1 2 1 1 4 1 18v224l-1 27-3 4-6 1-53 1-1 80-2 8-3 2h-462l-4-2-1-2-1-86-52-1-9-1-1-1-1-15v-256l2-5 1-1 60-2 1-279 3-5zm-5 19-7 1-1 1v258l1 7h433l1-5v-68l-1-99h-41l-12-2-12-5-10-7-7-7-6-10-4-10-1-5-1-14v-34l-1-1zm-71 286-1 3v239h563v-241l-1-1z" fill="#42454E"/>
<path transform="translate(253,687)" d="m0 0h329l85 1v72h-433l-1-66 1-6z" fill="#E2F3FC"/>
<path transform="translate(445,479)" d="m0 0h22l12 3 14 7 10 10 8 14 4 14 1 9v10l-2 17-4 12-8 13v3l17 8 1 2-8 16h-5l-14-8-6-5-4-1-14 4h-24l-14-4-14-7-6-5-9-13-4-11-3-16v-17l3-15 5-13 8-11 9-7 12-6z" fill="#42454E"/>
<path transform="translate(316,479)" d="m0 0h25l13 4 8 5 5 5 5 7 3 11v4l-2 1-23 1-5-12-4-3-9-2h-10l-13 4-2 3v8l4 5 9 4 24 6 16 6 9 6 7 10 3 10v12l-4 12-6 8-8 7-10 4-11 2h-21l-13-3-12-6-7-7-7-14-2-8v-4l12-2h12l5 13 5 5 5 3 4 1h17l10-5 4-4 1-3v-9l-5-5-10-4-29-8-14-7-8-9-4-9-1-10 2-10 5-9 8-7 10-5z" fill="#42454E"/>
<path transform="translate(305,343)" d="m0 0h298l5 3 1 2v7l-2 5-9 2h-280l-21-1-4-4v-9l3-4z" fill="#42454E"/>
<path transform="translate(299,289)" d="m0 0h305l4 4 1 7-3 6-6 2h-300l-5-3-2-2-1-8 4-5z" fill="#42454E"/>
<path transform="translate(447,500)" d="m0 0h16l11 4 6 5 6 10 4 12 1 13-2 14-5 13-4 4-16-9-8-3-2 6-2 3 1 5 11 6v3l-5 1h-9l-12-4-9-8-6-12-3-14v-13l2-11 6-12 6-7 10-5z" fill="#F9CEB4"/>
<path transform="translate(298,235)" d="m0 0h221l3 5v9l-3 4-7 1h-211l-5-2-3-3-1-7 3-5z" fill="#42454E"/>
<path transform="translate(536,482)" d="m0 0h25l1 101 8 1 54 1-1 20h-86l-1-1z" fill="#42454E"/>
<path transform="translate(654,236)" d="m0 0h13l1 99v72l-1 1h-16l1-171z" fill="#A3B3C1"/>
<path transform="translate(592,157)" d="m0 0 7 6 7 7 8 7 38 38 2 1v2h-27l-10-2-11-6-8-9-5-10-1-4-1-29z" fill="#F6CDB4"/>
<path transform="translate(642,189)" d="m0 0 4 1 5 5v2l4 2v2l4 2v2l4 1 4 4 8 7 4 5 7 14v48l-2-3-2 1-1 8-1 25-2 13 1 3-1 5 1 5-1 6-1 5-3-1 1-7-1-1v-7l-1-8-1-11-1-10-1-1-1-10v-33h2l1 11v3l3-1 1-7v-22l-3-5 1-13-2-4-1-5-8-8-12-3-5-1-3-4v-3l-1-4-2-1z" fill="#454D55"/>
<path transform="translate(741,644)" d="m0 0 3 4-1 8 4-2 2-4 1 9v24l-3 4-6 1-54 1-1-2 7-1v-4h10v-2l-8-1-1 2h-5l-1 3-3-1v-4l-16-1-13 1-4 6-1-4h-3v-2h-3v2l5 1-1 3h-4v2l-10-1 4-1v-2l-7-2-1-3 23-2 12-1 7 1 6-1 8 1 9-2 9 1h11v-2l8 1 2 1 1-3 7-1 2-11v-5l3-3 1-7z" fill="#454D55"/>
<path transform="translate(651,688)" d="m0 0h16v72h-15z" fill="#A3B3C1"/>
<path transform="translate(231,699)" d="m0 0h2l1 11 1 51v3 7l-5 2-5-1-3-5-1-7 1-14v-11l-1-3v-22l-2-9 3-1 2 5v6l3-2v-7z" fill="#454D55"/>
<path transform="translate(683,700)" d="m0 0 3 2v10l-4 7-2 21-1 15v11l-2 5-6 2h-19l2-5 4-1 1-2 9-3 1-30 3 3 1 4 2-13 2-3 2-10v-8l2-4z" fill="#454D55"/>
<path transform="translate(307,291)" d="m0 0h12 2 10l3 3 3-1 4 2 8-1 1 4-2 3-5 3v3h-32l-5-1h-1l-1-3-6-2-1-4 4-3h5z" fill="#454D55"/>
<path transform="translate(549,290)" d="m0 0h4l1 2 2-1 4-1v2h19l3 2 10 2 3 3h-2v2l-18 1-10 1-7-1h-12l-8-1h-5-1-8v-2l-7 2v-3l-6 2-2-1 1-4 1-2h2l1 4 7-1h3l4-2 1-2 4 1v3h3l1-4 10 1z" fill="#454D55"/>
<path transform="translate(580,127)" d="m0 0 6 1 2 4 2 1v3l4 1-3 1-5-4-4-2-5 3-1 5-3-2-11 1v-2h-15l-7-1-8 1-16-1v-4l7-2 5 1 9-1 13-1 14-1h11z" fill="#454D55"/>
<path transform="translate(228,129)" d="m0 0h15l16 1v2l-13 1-15-1-5 1v5h3l-1 5 5 1v65h-1l-1-55-3 2-3 10-2-2-1-21-1-9z" fill="#454D55"/>
<path transform="translate(406,541)" d="m0 0h1l1 7-1 5 1 3 2 1 6 11 3 9 4 4-5 1v-2l-4-1-8-10v-3l-3-4-2-10 2-6 1-1v-3z" fill="#454D55"/>
<path transform="translate(301,517)" d="m0 0 4 3 2 4 3 3-3 1-2-1v-2l-4-1v3h2l4 5v2l3 1-1 3h-5l-11-8-4-6v-5l5-1v2h2v-2z" fill="#454D55"/>
<path transform="translate(665,675)" d="m0 0 12 1-3 2h-8l-9 1-6 6v-4h-3v-2h-3v2l5 1-1 3h-4v2l-10-1 4-1v-2l-7-2-1-3 23-2z" fill="#464E56"/>
<path transform="translate(159,656)" d="m0 0h2l2 7 1 3h3l-1 4h-2l-1 2v-2h-2l2 9 3 4-3 1-5-3-2-1-1-8 1-8h2v-6z" fill="#464E56"/>
<path transform="translate(486,590)" d="m0 0 3 1 5-1v2h3l1 3 2 2-1 5h-2l-1-5-5 2-4-1h-17l-1-3-3-1 19-1z" fill="#464E56"/>
<path transform="translate(748,504)" d="m0 0 2 2v21l-2 3h2v24l-1 1v7l-3-3v-31l1-11z" fill="#464E56"/>
<path transform="translate(749,673)" d="m0 0h1v10l-3 4-6 1h-38l2-2h36v-2l2-1v-3l3-1 2 1z" fill="#42454E"/>
<path transform="translate(744,609)" d="m0 0h2l-2 10-1 6-1 8 1 4-1 2-3-1v-10l1-5-2-5 3-1 2-5z" fill="#464E56"/>
<path transform="translate(260,130)" d="m0 0 8 1h14l5 2-1 2h-19v-1l-7-1z" fill="#454D55"/>
<path transform="translate(233,710)" d="m0 0h1v49l-2 1-1-4 1-4v-12-4-12-4z" fill="#42454E"/>
<path transform="translate(741,564)" d="m0 0 2 3v6l4 1-2 6h-4l-1-3v-11z" fill="#454D55"/>
<path transform="translate(301,240)" d="m0 0 6 1 2 5-7 2-3-3z" fill="#464E56"/>
<path transform="translate(747,542)" d="m0 0h3v12l-1 1v7l-3-3v-16z" fill="#464E56"/>
<path transform="translate(740,529)" d="m0 0 3 1v14l-3 2-1-7v-9z" fill="#464E56"/>
<path transform="translate(747,528)" d="m0 0 1 2h2v12h-3l-1-11z" fill="#454D55"/>
<path transform="translate(511,293)" d="m0 0h2l1 4 7-1 1 4-5 1v-3l-6 2-2-1 1-4z" fill="#464E56"/>
<path transform="translate(234,136)" d="m0 0h8l1 3 2 2h-10v-2h-3v-2z" fill="#464E56"/>
<path transform="translate(250,683)" d="m0 0h7l1 2-1 2h-9v-3z" fill="#464E56"/>
<path transform="translate(161,440)" d="m0 0h2l-1 6-3 3-3-6v-2z" fill="#464E56"/>
<path transform="translate(652,219)" d="m0 0 2 1-3 5-8 1 1-3 5-2h3z" fill="#464E56"/>
<path transform="translate(221,700)" d="m0 0 2 1 1 4-1 6-2-1-2-9z" fill="#464E56"/>
<path transform="translate(736,420)" d="m0 0 4 2 1 4-2 2-4-4-1-3z" fill="#464E56"/>
</svg>
