<?xml version="1.0" encoding="UTF-8"?>
<svg version="1.1" viewBox="0 0 920 876" width="1280" height="1280" xmlns="http://www.w3.org/2000/svg">
<path transform="translate(0)" d="m0 0h920v876h-920z" fill="#FEFDFD"/>
<path transform="translate(446,5)" d="m0 0 5 1 27 15 26 15 23 13 24 14 14 8 11 6 29 16 17 10 23 13 28 16 25 14 17 10 23 13 18 10 42 24 20 12v193l-6-2-27-16-24-14-53-31-29-17-21-12-17-10-26-15-20-12 1 97 77 45 26 15 7 5 1 132 1 34-2 1-17-10-52-30-25-14-17-10v245l-27 15-24 14-21 12-26 15-21 12-25 15-4 1-1-8z" fill="#FD8A02"/>
<path transform="translate(410,4)" d="m0 0h2l1 17-1 183v524l1 146-6-2-27-16-56-32-24-14-28-16-8-5-1-509-4 1-22 13-82 48-48 28-26 15-22 13-14 9-5 1v-193l20-12 21-12 25-14 84-48 18-10 42-24 25-14 26-15 21-12 25-14 17-10 41-23z" fill="#FD8A02"/>
</svg>
