<?xml version="1.0" encoding="UTF-8"?>
<svg version="1.1" viewBox="0 0 900 900" width="1280" height="1280" xmlns="http://www.w3.org/2000/svg">
<path transform="translate(0)" d="m0 0h900v900h-900z" fill="#01B2E8"/>
<path transform="translate(288,70)" d="m0 0 3 1 1 396 2 22 6 31 6 21 8 21 13 27 10 17 12 17 10 13 12 14 21 21 10 8 17 13 15 10 21 12 21 10 26 10 25 7 5 2v4l-10 11-7 8-7 7-11 9-14 11-18 12-12 7-19 8-35 13-14 4-26 4-11 1h-26l-32-3-24-4-23-6-20-7-25-12-13-8-14-10-13-10-10-9-8-7-8-8-7-8-13-16-11-16-10-17-12-22-9-25-6-22-4-20-2-18-1-30v-356l5-5 10-6 27-16 53-31 22-13 24-14 22-13 58-34z" fill="#FFFEFE"/>
<path transform="translate(292)" d="m0 0h608v37l-5-2-18-10-25-15-8-5-7 1-33 17-19 10-20 11-16 8-29 15-19 10-27 14-19 10-35 18-19 10-12 7-6 3-1 1-1 449-2 23-6 27-6 20-7 19-5 10-9-1-24-7-31-12-25-12-15-9-16-13-11-9-15-15-11-14-10-13-12-18-8-15-9-23-6-19-4-23-1-13-1-130v-307l-35-21-18-11z" fill="#FFFEFE"/>
<path transform="translate(837,68)" d="m0 0h5l1 143v221l-1 48-3 22-7 24-10 24-10 19-12 18-11 13-14 14-11 9-17 12-22 14-18 10-23 10-21 7-28 8-7 1 1-7 5-18 4-21 2-27v-106l-1-126-1-204 5-5 60-32 27-14 51-27 25-13 22-12z" fill="#FFFEFE"/>
<path transform="translate(899,482)" d="m0 0h1v418h-538l4-2 29-5 32-8 25-9 24-11 22-12 24-14 25-14 21-12 26-15 140-80 23-13 18-12 13-10 15-13 10-9 7-8 12-14 10-13 14-21 10-18 10-21 10-26 8-32z" fill="#FFFEFE"/>
<path transform="translate(0)" d="m0 0h288l-4 4-25 15-24 14-15 9-117 69-24 14-15 9-41 24-20 12h-3z" fill="#FFFEFE"/>
<path transform="translate(0,601)" d="m0 0 2 3 6 33 5 21 10 30 11 25 11 21 14 22 10 14 13 16 12 13 7 8 8 7 10 9 14 11 19 13 13 8 14 8 26 12 21 8 20 6 27 6 26 4v1h-299z" fill="#FFFEFE"/>
</svg>
