<?xml version="1.0" encoding="UTF-8"?>
<svg version="1.1" viewBox="0 0 2048 1153" width="1280" height="1280" xmlns="http://www.w3.org/2000/svg">
<path transform="translate(0)" d="m0 0h2048v1153h-2048z" fill="#FAF9F9"/>
<path transform="translate(995,11)" d="m0 0h57l37 3 35 5 28 6 31 8 36 12 25 10 20 9 36 18 28 17 22 15 18 13 8 7 10 8 14 12 14 13 8 7 8 8 7 8 14 15 9 11 12 15 14 19 10 15 11 17 12 21 16 31 13 30 11 29 9 29 7 28 7 34 5 42 2 21v49l-2 33-6 45-5 26-10 38-12 36-11 27-11 24-10 20-14 24-12 19-13 19-9 12-16 20-12 14-15 16-26 26-11 9-11 10-9 7-16 12-18 13-19 12-22 13-27 14-25 12-26 10-36 12-22 6-26 6-36 6-26 3-25 2h-55l-26-2-49-7-40-9-24-7-38-13-30-13-36-18-19-11-19-12-16-11-21-16-14-11-15-13-7-7-8-7-24-24-7-8-9-10-11-14-12-15-9-13-13-19-10-16-13-23-17-34-13-32-13-38-8-31-7-33-5-36-2-21-1-21v-47l3-37 5-34 5-26 5-21 9-30 12-34 12-28 17-34 10-17 14-23 11-16 12-16 11-14 11-13 9-11 9-9 7-8 14-14 8-7 14-12 13-11 17-13 16-12 25-16 17-10 23-12 22-11 26-11 25-9 24-8 45-11 28-5 30-4z" fill="#B735F8"/>
<path transform="translate(779,501)" d="m0 0h127l1 1 1 334 3 19 7 21 9 16 9 12 13 13 14 10 15 7 19 6 20 3h11l17-2 19-5 21-10 14-10 15-15 10-15 7-15 6-21 2-11 1-15 1-322 1-1h126l1 5v329l-2 30-4 26-6 23-8 21-8 16-9 15-10 13-9 10-13 13-14 11-11 8-15 9-19 10-21 8-21 6-26 5-31 3-27 1-28-2-26-4-25-6-24-8-25-12-15-9-16-12-14-12-9-9-7-8-10-13-13-21-8-18-7-21-6-27-3-29z" fill="#FAF9F9"/>
<path transform="translate(1021,91)" d="m0 0h5l44 26 15 9 26 15 13 8 29 17 17 10 20 12 29 17 49 29 1 1v143h-3l-29-17-32-19-15-9-29-17-17-10-27-16-54-32-24-14-14-8-5 1-24 14-54 32-51 30-32 19-29 17-45 27-3 2h-3v-143l10-7 28-16 15-9 29-17 20-12 24-14 32-19 17-10 32-19 27-16z" fill="#FAF9F9"/>
</svg>
